<svg xmlns="http://www.w3.org/2000/svg" viewBox="0 0 719.75 314.01"><defs><style>.cls-1{fill:#e5eef9;}.cls-2{fill:#f7ab72;}.cls-3{fill:#1c2a43;}.cls-4{fill:#304466;}.cls-5{fill:#313a50;}.cls-6{fill:#ca1942;}.cls-7{fill:#f99570;}.cls-8{fill:#b1b8ca;}.cls-9{fill:#ebebeb;}.cls-10{fill:#e9f2fb;}.cls-11{fill:#cbdaea;}.cls-12{fill:#fefefe;}.cls-13{fill:#f6214a;}.cls-14{fill:#657184;}.cls-15{fill:#eff6fc;}.cls-16{fill:#f5fafe;}</style></defs><title>carmanAsset 3</title><g id="Layer_2" data-name="Layer 2"><g id="Layer_1-2" data-name="Layer 1"><path class="cls-1" d="M356.05,304.79c-.11,1.13.09,2.57-1.46,2.79-6.71.94-13.48,2.52-20-.91a13.25,13.25,0,0,0-6.24-1.39q-90.69-1.5-181.39-3a38.42,38.42,0,0,0-12.67,2c-4.76,1.56-10.06.39-14-1.09-5.06-1.89-9.56-.7-14-.26-6.19.61-12.28,0-18.41.28-2.09.08-3.6-.65-3.77-3,8.74.35,17.41-.94,26.17-.77a140.75,140.75,0,0,0,22.06-1.7c2.23-.32,5.5.73,6.89-2.46l1-.49a13.59,13.59,0,0,0,8-1.67c14.22-4.29,22.71-14,25.07-28.38,2.21-13.46-2.65-24.76-13.31-33.43-1.05-.85-2.06-1.67-3.54-1.19-.49-2.9-3.14-2.78-5.08-3.65l-1.85-.73c-4.3-2-8.93-2.31-13.55-2.32-6.44,0-12.92.77-19.3.21a128.36,128.36,0,0,0-25.25-.17l-2-.31c-2.55-1.42-5.42-.18-8.06-.95,1.34-1.53,4-2.44,2.91-5.18-1.77-4.64.12-6.14,4.6-5.83,1.58.11,3.63.48,3.63-2.11,0-2.14-1.5-2.76-3.37-2.81l-3.49-.1,2.1-6.93c.31-1.7.63-3.4.94-5.09l.23-2,8-.23c3.93,1,7-.28,9.84-3.1a50.58,50.58,0,0,0,12.73-19.93c5.48-16.3,2.45-31.35-6.78-45.46,2.72-3.14,6.78-2.68,10.21-3.94,4.27-1.56,8.8-2.42,12.82-4.86,3.76-2.29,5.79-1.24,6.39,2.54-3.64.59-5.06,3.23-6,6.39-1.48,5.24-.44,11.07-4.09,15.9-1,1.3-.81,3.84.49,5.63-.84,3.76,4.82,4.05,4.13,7.74,0,2.38-2.47,4.51-.74,7.07-2.85,2.5-1.93,5.86-1.25,8.61.63,2.55,3.67,1.23,5.65,1.54,1.3.2,2.62.2,3.93.29-2.58,6.82-4.21,13.58-2.51,21.1,2.24,9.9,14.12,20.11,23.67,18.91a93.08,93.08,0,0,0,14.93-3.54c14.42-4.33,28.67-9.29,43.22-13.13,7.15-1.88,13.85-5.45,21.38-5.87,1.61,1.49.92,3.43.89,5.18-.2,15.28-.48,30.56-.74,45.84-10.34,4.65-17.18,12-16.29,23.95.86,11.49,4.77,21.43,17.37,25.05.75,1.29-2.7,3.56,1,4.17h13.08l6.86,0,1.13.06a72.38,72.38,0,0,0,13.65.23,17,17,0,0,0,6.4,0c1.76-1.19,1-3,1-4.57.38-19.46.77-38.93,1-58.39.13-13.21,1-26.41.31-39.62-.11-.6-.21-1.19-.31-1.78,3-1.8,6.66-.95,9.84-2.12a29.89,29.89,0,0,0,10.13-1.65,29.6,29.6,0,0,0,9.82-1.11c2.95-.23,5.91-.44,8.86-.69,5-.44,7-2.61,7.35-8,5.15-1.84,5.34-1.71,5.71,4.11-3.09.65-1.43,3.18-1.92,4.85a2.12,2.12,0,0,0-1.05,2.08c0,.32,0,.64,0,1a4.57,4.57,0,0,0-.09,6l0,.88a2.09,2.09,0,0,0,1,2.1l0,0c0,1.46-.07,2.93,2,3.06l0,0a1.82,1.82,0,0,0,2,2.05l0,0,1,1,1.93,1c.7,1.21,1.89,1,3,1.06h0c1.37,1.72,3.38.76,5.05,1.2-.51,2.23-2.38,2.34-4.14,2.84-4,1.16-8,2.51-12,3.78l-13.08,3.81h0c-2.27-4.27-5.67-2.23-7.66-.48-3.43,3-3.41,1.37-3.26-1.64.72-.62,1-1.39.26-2.11-2.49-2.3-8.94-1.22-11.27,1.84l-1,1c-3.48,2.93-1.21,5.94-.11,8.93-7.14.53-11,3.7-11.18,9.48-.32,14.15-.42,28.31-.81,42.46-.09,3.29,1,3.53,3.69,2.67,8.37-2.63,16.78-5.12,25.18-7.64,10.42-3.13,20.85-6.2,31.18-9.64,5.73-1.9,11.24-4.87,17.48-5.13-1.2,11.65,1.23,22.15,8.26,31.88,2.1,2.91,5.82,3.89,7,7.38-.21,1.76-1.44,1.91-2.88,1.95-6.26.19-12.54.18-18.77.77-5.7.54-11.5.7-17.06,2.39-.92.28-2.13.33-2.16,1.63s1.1,1.43,2.08,1.61ZM324.77,202.23c-.35-.39-.54-1.31-1.29-.4l1.3.39a1.52,1.52,0,0,0,1.9.82c.11,0,.17-.24.26-.37Zm-34.56,92.42a1.54,1.54,0,0,0-1.91-.81c-.11,0-.17.25-.26.37l2.16.44c.12.73.08,1.58,1.18,1.53a.43.43,0,0,0,.31-.3C291.78,294.78,290.93,294.79,290.21,294.65Zm.09-7.64c.41,1-.79,3.11,1.31,2.9a3.35,3.35,0,0,0,2.62-3.13,2.33,2.33,0,0,0-2.33-2.6C289.73,284,290.66,285.93,290.3,287Zm39.53-83.48c1.65.29,3.29,1.61,5,.08Z"/><path class="cls-1" d="M547.83,95c5.82-.15,11.13-2.66,16.46-4.36,10.66-3.4,21.6-5.84,32.07-9.93,5-2,10.56-2.77,15.95-3.51,6.76-.94,18,7,21.28,13.87,3.2,6.67,2.9,13.47,2.75,20.41-8.23,0-16.47-.06-24.7-.17-3.91,0-6.36,1.4-6.57,5.59h-6.4c-1.86,0-3.23.69-3.33,2.77-.1,1.91,1.38,2.64,2.81,2.87,2.25.36,4.56.34,6.85.48.19,5.51,4.34,5.16,8.06,5.46l-.15,1.64a24.18,24.18,0,0,0-9.28,1c-8.94,2.74-18.09,4.87-26.86,8.07-6.4,2.34-13.71,2.76-18.93,8l0-5.07c1.67-1.81.79-3.76.06-5.71l-.08,4.75L554.12,116l0,0c1.69-2.23,1.38-4.52.24-6.84-.85-2.86-1.18-6-3.92-7.89C549.59,99.14,548.71,97.05,547.83,95Z"/><path class="cls-2" d="M149.77,106.21c-2.72-2.35-.61-3.26,1.28-4.17,12.43-6,25.54-9.91,38.91-13.18,7.87-1.93,15.8-3.34,23.79-4.58l1.29.6c1.71,1,3.59.51,5.38.54,26.62.49,53.23.91,79.85,1.41,1.63,0,3.53-.56,5.68,1.8-9.73.26-18.29,2.56-26.93,4.22a209.51,209.51,0,0,0-31.56,9.25c-5.52,2-11.61,3.27-16.16,7.54-25.33-1-50.68-1.28-76-1.32C152.94,108.91,151.48,107.23,149.77,106.21Z"/><path class="cls-3" d="M215,84.88l-1.29-.6c.69-1,1.27-2.21,2.84-2a19.22,19.22,0,0,0,9.33-.9A220,220,0,0,1,252.25,73a286.33,286.33,0,0,1,48.33-8.4c15.73-1.4,31.41-2.31,47.13-.11,2.23.31,4.21.06,5.93-1.72,3.12-3.21,6.41-6.24,9.59-9.4,1-1,3-2,2.59-3.41-.6-2-2.88-1.08-4.4-1.11-23.8-.46-47.61-.8-71.42-1.29-3.07-.07-6.1.18-8.68,1.58-2.39,1.29-4.72,1.17-7.16,1.19,4.13-3.66,9.69-3.63,14.46-5.64,1.7,1,3.56.58,5.37.61q36.64.63,73.3,1.24c1.26,0,2.94-.48,3.62.88.76,1.56-1,2.26-1.83,3.14-4.3,4.39-8.58,8.81-13,13.07-6.79,6.53-12.74,13.94-20.47,19.47v.08a3.79,3.79,0,0,0-2.83,1.22,76,76,0,0,1-17.3,1.94c-24.32-.54-48.65-.91-73-1.29C233.35,84.91,224.2,84.94,215,84.88Z"/><path class="cls-4" d="M274.16,50.33c2.44,0,4.77.1,7.16-1.19,2.58-1.4,5.61-1.65,8.68-1.58,23.81.49,47.62.83,71.42,1.29,1.52,0,3.8-.9,4.4,1.11.41,1.4-1.55,2.38-2.59,3.41-3.18,3.16-6.47,6.19-9.59,9.4-1.72,1.78-3.7,2-5.93,1.72-15.72-2.2-31.4-1.29-47.13.11A286.33,286.33,0,0,0,252.25,73a220,220,0,0,0-26.33,8.37,19.22,19.22,0,0,1-9.33.9c10.24-8,21.56-14.45,32.56-21.34l1.22-.8,0,0,.91-.43a97.44,97.44,0,0,0,9.68-4.89c1.74-1.11,4.67.41,5.39-2.58C269.25,52.86,271.17,49.44,274.16,50.33Z"/><path class="cls-5" d="M47.22,105.6c5.89-2.26,12.1-1.68,18.2-2l13,.33,1,.09c13.6,2.24,24.63,8.88,33.33,19.5,9.23,14.11,12.26,29.16,6.78,45.46a50.58,50.58,0,0,1-12.73,19.93c-2.85,2.82-5.91,4.12-9.84,3.1-1.2-2.74-.93-5.64-.93-8.52,5.33-2.08,7.77-6.73,10.54-11.31,12.26-20.25,2.06-46.21-18.45-54.82-5.65-2.37-11.42-3.95-17.59-2.09-2.13-.07-4.33-1.07-6.34.48-7.78,2.41-15.45,5.55-23.88,3.46,1.28-3.19,1.53-6.79,6.15-7.86C49.13,110.69,48.67,107.78,47.22,105.6ZM104,187.35c.09-1.75-.14-3.45-2.25-3.73A2.94,2.94,0,0,0,98.45,186c-.31,2,1.35,3.4,3.1,3.78C102.85,190.07,104,189,104,187.35Z"/><path class="cls-2" d="M547.83,95c.88,2.08,1.76,4.17,2.65,6.25l-7.78-.2c-1-.06-2-.16-3-.17q-42.68-.73-85.33-1.42a43.34,43.34,0,0,1-8.74-.68c-4.12-1-1-5.57-2.37-8.23-.23-.44-.38-.92-.57-1.39,15.48.22,31,.37,46.44.68,4.54.09,9-.13,13.24-1.75L521,82.46c7.3,2.4,14.62,4.77,21.89,7.25C545.37,90.56,546.26,93.13,547.83,95Z"/><path class="cls-6" d="M400.56,38.56l.63-7.89,13.45,0q-.56,32.85-1.11,65.7c-.08,4.15-1.2,8.82,5.35,9,.17,0,.31.88.46,1.35-1.48-.09-3.21.28-4.42-.35-6.46-3.34-10.82.08-15,4.29q-.19-6.66-.4-13.3l.18-9.41.26-20.55c0-2,.08-4,.13-6l.24-14.12.12-3.89C400.47,41.83,400.51,40.19,400.56,38.56Z"/><path class="cls-2" d="M132.58,145.14c-1.3-1.79-1.48-4.33-.49-5.63,3.65-4.83,2.61-10.66,4.09-15.9.9-3.16,2.32-5.8,6-6.39,2.45,1.57,3.6,5,7.09,5.06,2-.27,3.58.2,4.54,2.09q32,.63,64,1.28a8.24,8.24,0,0,0,5.13-1.58c2.64,1.68,5.21,3.85,8.44,1.12a17.58,17.58,0,0,0,5.88,0c8.64-1.08,17.29-2,25.93-3-.33,2.28-1.7,3.91-3.91,3.77-4.4-.26-8,2-11.89,3.21-8.2,2.62-16.37,5.06-25.23,4.38-7.53-.57-15.11-.35-22.67-.47L153,132.31c-3.81-.07-8,.93-9.56-4.45-.39-1.33-2.3-2.32-3.67-3.23-1.12-.75-2.71-.52-2.57,1,.45,4.85-2.92,10.26,2,14.49.68.58,1.71,1.39.78,2.47-.65.74-1.56.35-2.26-.13C134.33,140,133,141.75,132.58,145.14Z"/><path class="cls-2" d="M400.56,38.56c-.05,1.63-.09,3.27-.14,4.9a32.81,32.81,0,0,1-7.85.95c-6.83.38-13,2.21-18.47,7-7.35,6.4-13.56,13.9-20.65,20.53-1.85,1.74-4.55,2.95-5.66,4.74-4.25,6.88-4.44,7.32-12.19,6.46,7.73-5.53,13.68-12.94,20.47-19.47,4.43-4.26,8.71-8.68,13-13.07.87-.88,2.59-1.58,1.83-3.14-.68-1.36-2.36-.86-3.62-.88Q330.65,45.9,294,45.3c-1.81,0-3.67.38-5.37-.61,3.11-.24,4.14-2,4-5-.15-3.62,0-7.25,0-10.88l.8-.77a96.13,96.13,0,0,1,.08,10.46c-.4,4.21,1.62,4.88,5,4.22,14.89-2.89,30-3.35,45.08-4.31,16.49-1,32.95,0,49.43,0C395.56,38.41,398.06,38.5,400.56,38.56Z"/><path class="cls-7" d="M521,82.46l-18.58,5.6c.13-1.94-1-3.13-2.48-4.06a121.23,121.23,0,0,0-32.43-26.56c-1.14-1.58-2.93-2.16-4.59-2.87-6.49-2.75-13.43-3.71-20.29-4.93q0-3.72,0-7.44c1.87,1.57,4.22,1.89,6.48,2.25,13,2.06,24.57,7.61,35.34,15a26.29,26.29,0,0,0,4,1.89C498.65,69.35,509.83,75.86,521,82.46Z"/><path class="cls-4" d="M613.06,128.46c-3.72-.3-7.87,0-8.06-5.46l.07-6.13c.21-4.19,2.66-5.64,6.57-5.59,8.23.11,16.47.12,24.7.17,2.38.75,5-.45,7.32,1-2,1-6.54-1.26-5.94,2,.91,5.1-1.84,9.27-1.64,14l-1.81.28-7.31-.06A75.94,75.94,0,0,0,613.06,128.46Z"/><path class="cls-3" d="M251.54,23A10.53,10.53,0,0,1,258,15.5l26,.56c1.27.48,2,4.33,3.91.57,3.6.9,5,3.5,5.43,6.91-7,1.06-13.8,5-21,.9a2.31,2.31,0,0,0-1.94-.05c-5.95,3.26-12.32,1.2-18.5,1.56l-.36-1C251.52,24.32,251.53,23.65,251.54,23Z"/><path class="cls-3" d="M427.93,18.43c2.7-.18,5.41-.57,8,.43,0,8.21,0,8.26-8.45,8.05-3.58-.09-8-1.84-10.57-.31-5.31,3.22-10.53,1.4-15.77,1.84-.32-6.92,2.72-10.49,9.29-10.54,4.12,0,8.24.28,12.37.44-.09,1.94.92,2.59,2.75,2.57S427.91,20,427.93,18.43Z"/><path class="cls-4" d="M676.38,113.05l1,.33c2.11,4.85,1.54,9.82.74,14.81l-7.93.72-1.85-.23c-2.35-1-4.85-.43-7.28-.67a4.14,4.14,0,0,1-2.19-3.09q.07-4.1.16-8.2c.53-3.07,2.65-3.8,5.38-3.74,2,0,3.92,0,5.88-.06Z"/><path class="cls-8" d="M670.16,128.91l7.93-.72,5.08.49c-7.21,1.59-7.23,1.59-7.34,9.93-.1,7.44-.15,14.89-.22,22.33l-6.2-.12Z"/><path class="cls-5" d="M401.18,28.44c5.24-.44,10.46,1.38,15.77-1.84,2.53-1.53,7,.22,10.57.31,8.45.21,8.45.16,8.45-8,3.29-.16,4.8,2.28,6.5,4.45a19.38,19.38,0,0,1,.07,7.7l-27.9-.29-13.45,0C401.19,29.92,401.18,29.18,401.18,28.44Z"/><path class="cls-4" d="M670.6,91.22c-1-.21-2-.29-2-1.67.07-3.3-.1-6.63.28-9.9a4.94,4.94,0,0,1,7.1-3.74c3.76,1.88,4.31,12.51.8,15.42Z"/><path class="cls-8" d="M670.6,91.22l6.19.11q-.21,10.86-.41,21.72l-6.12-.13Z"/><path class="cls-5" d="M636.08,128.43c-.2-4.7,2.55-8.87,1.64-14-.6-3.31,3.94-1.08,5.94-2,2.8.64,3.52,2.62,3.32,5.18-.82,0-1.65,0-2.48,0-2.08-.14-3.61.3-3.55,2.87,0,2.41,1.39,3.11,3.55,3a15.89,15.89,0,0,1,2.47.24c-.19,4-2.49,5.33-6.19,5.12-1.62-.08-3.26.05-4.89.09A.39.39,0,0,0,636.08,128.43Z"/><path class="cls-5" d="M251.86,26c6.18-.36,12.55,1.7,18.5-1.56a2.31,2.31,0,0,1,1.94.05c7.21,4.09,14,.16,21-.9.05,1.5.11,3,.16,4.51l-.8.77a266.35,266.35,0,0,0-28-.6l-12.83-.12C251.87,27.39,251.86,26.67,251.86,26Z"/><path class="cls-5" d="M683.17,128.68l-5.08-.49c.8-5,1.37-10-.74-14.81,3.19,0,7.62-1.42,8.52,2.78S688.11,125.41,683.17,128.68Z"/><path class="cls-8" d="M647,123.69a15.89,15.89,0,0,0-2.47-.24c-2.16.08-3.5-.62-3.55-3-.06-2.57,1.47-3,3.55-2.87.83.06,1.66,0,2.48,0,4-.1,8.13,1,12-.87q-.09,4.11-.16,8.2C655.09,122.57,650.94,124,647,123.69Z"/><path class="cls-4" d="M669.41,160.82l6.2.12,1.58.42c2.58,3.22-1.17,5.1-1.63,7.68-4-.53-8.3-.2-11.09-4C666.23,163.75,667,161.34,669.41,160.82Z"/><path class="cls-7" d="M153.77,124.37c-1-1.89-2.58-2.36-4.54-2.09-.44-5.37,1.87-10.66.54-16.07,1.71,1,3.17,2.7,5.5,2.11A84.78,84.78,0,0,0,153.77,124.37Z"/><path class="cls-9" d="M251.86,26V28.1q-.31,15.82-.61,31.63l-.91.44c.12-11,.22-21.94.38-32.9A8.08,8.08,0,0,1,251.5,25Z"/><path class="cls-9" d="M448.88,21.25c-.47,2.12-1.41,2.71-3.08,1,1.71-2.82,3.1-5.67,1.15-9h1C449.94,15.74,448.44,18.6,448.88,21.25Z"/><path class="cls-5" d="M427.93,18.43c0,1.54-.59,2.46-2.34,2.48s-2.84-.63-2.75-2.57A10.21,10.21,0,0,1,427.93,18.43Z"/><path class="cls-9" d="M254.17,0l8.77.15C260,.75,257,2,254.17,0Z"/><path class="cls-5" d="M287.88,16.63c-1.87,3.76-2.64-.09-3.91-.57C285.41,15.33,286.65,16,287.88,16.63Z"/><path class="cls-10" d="M448,13.26h-1c-1.53-1.55-.28-2.21.95-2.77a1.12,1.12,0,0,1,1.6.57C449.84,12.26,448.28,12.36,448,13.26Z"/><path class="cls-11" d="M450.89,18.3c0,1,0,2-.05,3l-.46,0h-.47C449.91,20.19,449.73,19,450.89,18.3Z"/><path class="cls-1" d="M79.39,104l-1-.09C78.78,103.38,79.11,103.44,79.39,104Z"/><path class="cls-9" d="M250.37,60.13l-1.22.8Z"/><path class="cls-11" d="M356.05,304.79l-11.62-2.2c-1-.18-2.11-.28-2.08-1.61s1.24-1.35,2.16-1.63c5.56-1.69,11.36-1.85,17.06-2.39,6.23-.59,12.51-.58,18.77-.77,1.44,0,2.67-.19,2.88-1.95,2.52-.73,3.73,2.07,5.93,2.2,1.63,1.53,3.71,2,5.79,2.49l2.2.52c9.54,2.57,19.21,1.83,28.88,1.11,2.19,2.9,5.29,3.62,8.7,3.77,5.18.22,10.29-.18,15.56.79,8,1.48,10-.94,9-8.66a4.21,4.21,0,0,1,.11-1l4.78.11c-1.43,5.28,1.33,6.07,5.9,6.53,7.81.8,13.9-4.26,21.11-5.19,1.15,1.7,3,.88,4.51,1.28s3.15.64,3.24,2.45c.08,1.62-1.59,1.95-2.79,2.3-2.65.78-5.36,1.37-8.05,2l-10,.85c-1.7.17-3.58-.74-5,.87l-2,0c-1.39.09-2.93-.49-4,.88-.33,0-.66,0-1,0-1.1,0-2.28-.2-3,.94-11.63-2.08-23.33.63-35-.53-1.1,0-2.26-.25-3,.87a42.49,42.49,0,0,0-18.16-.58c-2.47.44-4.54-.4-6.79-.73l-2-.05-9-.18-12-.23-2,0c-4.77-2.28-10.19,0-15-2.19Z"/><path class="cls-1" d="M488.06,305c2.69-.67,5.4-1.26,8.05-2,1.2-.35,2.87-.68,2.79-2.3-.09-1.81-1.84-2.07-3.24-2.45s-3.36.42-4.51-1.28a2.13,2.13,0,0,1,2.69-1c11.88,1.91,23.81.84,35.72.62.58-.3,1.15-.6,1.65.12.18,3-1.75,2.88-3.92,3-6.22.37-12.46.69-18.65,2.73,8.45,3.48,17.46,3.72,26.4,4.38-.13,1.46-1,3.16-2.27,2.69-4.17-1.57-8.34.61-12.58-.65-6.5-1.93-13.11-2.51-19.87-.05C494.84,310.8,490,308.91,488.06,305Z"/><path class="cls-1" d="M623,311.23c1.53-1.54,3.46-.86,5.22-.84q17.73.21,35.45.55c5.81.11,11.54-1.45,17.37-.65-1.28,3.2-4.2,2.85-6.7,2.79-8.76-.21-17.51.59-26.24.88-7.82.26-15.35-.67-23-1.7A7.59,7.59,0,0,1,623,311.23Z"/><path class="cls-1" d="M566,309.3c11.27.19,22.55.36,33.82.61,1.75,0,3.7-.57,5.17,1-7.37,2.57-15,2.42-22.61,2-3.28-.2-6.59-.21-9.86-.52C570,312.14,567.1,312.59,566,309.3Z"/><path class="cls-1" d="M360,304.87c4.78,2.15,10.2-.09,15,2.19a2,2,0,0,1-2.35,1.95c-3.76-.39-7.52-.78-11.25-1.33C359.89,307.45,360.11,306,360,304.87Z"/><path class="cls-1" d="M377,307.1l12,.23C386.24,310.16,379.63,310,377,307.1Z"/><path class="cls-1" d="M538,306.89a7.85,7.85,0,0,1,5,1C540.69,310.75,539.78,310.56,538,306.89Z"/><path class="cls-1" d="M473,306.72c1.45-1.61,3.33-.7,5-.87C476.85,308.9,475,308.17,473,306.72Z"/><path class="cls-1" d="M467,307.58c1.11-1.37,2.65-.79,4-.88C470.24,309.54,468.72,309.07,467,307.58Z"/><path class="cls-1" d="M463,308.53c.75-1.14,1.93-.92,3-.94C465.56,309.74,464.62,310.26,463,308.53Z"/><path class="cls-1" d="M425,308.87c.78-1.12,1.94-.89,3-.87C427.52,310.14,426.56,310.6,425,308.87Z"/><path class="cls-1" d="M398,307.51l2,.05c-.27.5-.47,1.36-.82,1.43C398.13,309.2,398.14,308.23,398,307.51Z"/><path class="cls-7" d="M132.58,145.14c.45-3.39,1.75-5.11,5.21-2.68.7.48,1.61.87,2.26.13.93-1.08-.1-1.89-.78-2.47-5-4.23-1.59-9.64-2-14.49-.14-1.52,1.45-1.75,2.57-1,1.37.91,3.28,1.9,3.67,3.23,1.56,5.38,5.75,4.38,9.56,4.45l46.39.79c7.56.12,15.14-.1,22.67.47,8.86.68,17-1.76,25.23-4.38,3.91-1.25,7.49-3.47,11.89-3.21,2.21.14,3.58-1.49,3.91-3.77,3.57-.74,7.14-1.52,10.71-2.23,7.46-1.47,12.09-5.72,13.36-13.36,1.54-.55,2.72-1.67,4.45-2.07,22-5.17,44.14-9.1,67-7.87,13.6.73,27.25.54,40.88.77q.21,6.64.4,13.3c-.88,5.26,1,11.64-5.87,14.53a1.9,1.9,0,0,0-.79,2.6c.5,1.18,1.61,1,2.56.79,1.12-.29,2.18-.77,3.27-1.17q-.26,13-.5,26c-9.34.83-18.42,3-27.49,5.23-1.24.3-3.2.43-3,2,.23,2.11,2.39,1.29,3.68,1.27,8.9-.1,17.8-.33,26.7-.52q-.12,6.5-.23,13l-43.93-.94c4.24-2.89,3.9-7.67,4.06-11.73.61-15.6-2.41-29.85-14.11-41.71-8.89-9-24.81-12-35.14-4.12a44.43,44.43,0,0,0-15.31,22.31c-3.58,11.13-3.27,23-7.55,33.94a.85.85,0,0,0,0,.57l-71.69-1.14-24.11-.47-46.15-.76c-1.31-.09-2.63-.09-3.93-.29-2-.31-5,1-5.65-1.54-.68-2.75-1.6-6.11,1.25-8.61.77.84-.09,2.6,1.38,2.9,1.73.36,4,1,5.15-.47,1.71-2.14,1.12-5.07,1.11-7.65,0-2.18-2.09-1.55-3.45-1.69-1.14-.13-2.3-.11-3.45-.16C137.4,149.19,131.74,148.9,132.58,145.14Zm58.8,20.16v-.05l7.49.12c10.83.19,21.66.4,32.49.52,1.37,0,3.37.92,3.95-.95.47-1.51-1.16-2.56-2.18-3.63-1.94-2-3.88-4.07-5.73-6.18a7.88,7.88,0,0,0-6-2.95c-22.49-.35-45-.69-67.48-1.17-3.45-.07-4.81,1.53-5.17,4.6a16.5,16.5,0,0,1-.51,3.95c-1.65,4.32.4,5.1,4.2,5.13C165.39,164.78,178.39,165.08,191.38,165.3Zm58.29-10.37c-3.09-.06-5.42-.14-7.74-.11-1.19,0-2.91.4-1.75,1.89,2.58,3.34,4.68,7.6,9.56,8.09,4,.39,8,.29,12,.34.93,0,2.09.29,2.66-.82.68-1.33-.49-2-1.07-3C260,155.83,255.18,153.71,249.67,154.93Zm33.46,10.64c-.56-2.17-1.37-4.67-4.05-4.88A4.79,4.79,0,0,0,273.8,165a4.48,4.48,0,0,0,4.47,5C280.84,170.18,282.4,168.22,283.13,165.57Z"/><path class="cls-12" d="M368,255c-6.24.26-11.75,3.23-17.48,5.13-10.33,3.44-20.76,6.51-31.18,9.64-8.4,2.52-16.81,5-25.18,7.64-2.7.86-3.78.62-3.69-2.67.39-14.15.49-28.31.81-42.46.14-5.78,4-8.95,11.18-9.48l1,.09c3.58,3.56,8.69,3.64,12,.2,2.06-3.73,4.89-5.38,9.09-3.4-1.52,1.39-3.82-.46-5.35,1.17.72,1.95,2.51,2.36,3.93,3.22l-5.39.27c4.76,2.72,7.66.71,10.43-2.41.37,2,.58,4.15,3.27,2.41l0,0c2.31.58,4.91,2,7,.68,2.57-1.58-1.74-5,1.36-7.28,1.63,2.34,3.36,4.45,2.23,7.6-.64,1.75-1.46,3.72,1.51,4.11,2.43.32,3.87-.77,3.85-3.33a10.73,10.73,0,0,1,1.53-6.19c1-1.53,3.61-2.58,2.1-5-1.29-2.07-3.67-.93-5.51-1.4-2.31-.59-5.53,1.73-6.84-2.08,4-1.27,8-2.62,12-3.78,1.76-.5,3.63-.61,4.14-2.84l7.89-1.05c9.8-.67,18.11,2,23.9,10.48l-1.92,0c-2.38-.79-4.23,2.59-5.94,1.54-4.37-2.7-9-1.86-13.53-1.73-2,.06-4.14-3.38-6-.13-1.3,2.28-.56,4.89-.67,7.34a13.4,13.4,0,0,0,.67,3.22c-3.33-3.26-.2-7.78-3-11.29,1.53,3.57-.78,6.66-.74,10,0,1.44-.37,3.34,1.86,3.37a192,192,0,0,0,20.41-.42c5.29-.5,5.6.85,5.86,4.6A44.67,44.67,0,0,0,368,255Z"/><path class="cls-5" d="M137.2,294.87c-6,.23-11.93.51-17.82-.78-3.68-.81-7.21.68-10.87.57-12.09-.35-24.19-.63-36.28-.55-4.37,0-7.88-2.37-11.94-3-.12-4.59-2.33-6.6-7-6.59-2.26,0-5.37,1.72-6.85-1.78,2.55-1.16,6.14,1.91,8-1.95.17-2.33-.71-4.49-1-6.68-.94-6.17-3-12.28-2.12-18.66,1.41-10.26,3.52-20.29,10-28.78,2.36-.13,3-2.53,6.17-3.63l-7.41-.13.43-1.06c2.23-2,1.84-4.63,1.91-7.17a1.78,1.78,0,0,1,2-.61c.19,2.13-.2,4.63,3,4.83l0,0c2.14.21.78,4.32,3.87,3.46l10-.12c2.64.77,5.51-.47,8.06.95-.52,1.26,1.08,3.52-2,3.6-5.79.15-6.16,1.16-3.64,6.64,7.91,17.25,8.29,34.38-1.43,51.15-1,1.74-1.44,3.34-.66,5.14a2.49,2.49,0,0,0,2.94,1.36c2.4-.42,1.07-2.86,2.12-4,.15-.17.57-.11.87-.16,1.43,1.17-.3,2.88.35,3.75,6.53,1.84,8.77-4.55,13.4-6.17,1.75-.5,3.53-.92,5.26-1.5a25.75,25.75,0,0,0,17.14-27.29,25.2,25.2,0,0,0-22-22.25c-.75-.3-2-.43-2.16-.91-1.29-4-4.53-5.86-7.9-7.66-.29-.15-.26-.9-.38-1.37a128.36,128.36,0,0,1,25.25.17c6.38.56,12.86-.23,19.3-.21,4.62,0,9.25.29,13.55,2.32-.2,3.2-6.67,5.56-1.27,9.5-1.19.35-2.31-1.53-4.24.56,1.86-.12,2.94,3.21,4.23-.57,1,.73,4.67-1.69,2.74,2.38-.55,1.14.3,1.32,1.08,1.68,8.37,3.9,9.59,11.4,9.8,19.45.07,2.67-.18,4.9-3.38,5.69-2.09.51-2.65,2.07-2.24,4.24a37.45,37.45,0,0,1,.34,5.91c.09,3.58-2.87,5.08-5.05,6.93s-3.28-.75-4.79-1.79c-.85-.58-2.21-.43-3.34-.6,1.65-2.06,3.49-4,4.92-6.19,8.3-12.77,3-31.43-10-35.83-1.43,0-1.69-1.11-2.29-2.17-3.34-5.89-7.21-7.57-13.9-6.21-1.4.29-3.9-.35-3.6,2,.19,1.45.3,3.25,2.68,4.51a19.17,19.17,0,0,1,8.81,9.33c5.68,14.17,4.15,28.33-8.61,39.85-1.37,1.25-4.53,1.63-3.69,4.07s3.8,1,5.79,1.38a6.1,6.1,0,0,0,2.48,0c3.87-.92,9.06,0,8.94-6.56a2.38,2.38,0,0,1,2.32-2.25c1.6,2.47,2.64-.52,4-.4a4.45,4.45,0,0,0,.71,1.27c4.8,4.15,4.47,5.78-1.73,8.4A4.31,4.31,0,0,0,137.2,294.87ZM57,262.78a33.4,33.4,0,0,0,4.32,15.14c2,3.42,4.61,6.29,9,6,4.2-.29,6.83-2.94,8.38-6.74,6.77-12.82,6.68-25.84.28-38.61-3.69-7.34-9.38-8-15.21-2.61C57.08,243.78,56.24,253.08,57,262.78Z"/><path class="cls-12" d="M144.3,170.39l46.15.76c2.51,4.59,6.51,6.71,11.61,6.69,2.74,0,5.47-.45,8.2-.69,1.74,2.32,4.27,2.87,6.94,3.26,10.28,1.52,20.55,3.11,30.83,4.67l-.12,1.82c-1.07,0-2.21-.16-2.92,1-7.53.42-14.23,4-21.38,5.87-14.55,3.84-28.8,8.8-43.22,13.13a93.08,93.08,0,0,1-14.93,3.54c-9.55,1.2-21.43-9-23.67-18.91C140.09,184,141.72,177.21,144.3,170.39Z"/><path class="cls-6" d="M260.27,292H247.19c.38-22.44.72-44.87,1.15-67.31.24-13.12.61-26.23.92-39.35,6.22.6,12.42,1.42,18.69.88-.28.55-.62,1.61-.85,1.59-6.29-.57-5.16,3.94-5.22,7.57Q261.05,243.73,260.27,292Z"/><path class="cls-5" d="M281.91,292.36a72.38,72.38,0,0,1-13.65-.23q.78-45.9,1.54-91.81c.07-4.64-.06-9.29-.1-13.93.17-1.13-.1-1.91-1.45-1.86l2.68-5.84c1.72,1,.71,3.72,3.1,3.65,0,5.5.06,11-.2,16.49-.14,3.15,1.44,3.5,3.95,3.54s4.12-.32,4.07-3.44c-.06-4.82.23-9.65.37-14.48,1.52.16,3.46-.53,3.78,2-4.64,2.31-1.6,6.29-2.07,9.51l-.11,1.2q-.21,8.63-.44,17.25c-.19,3-.73,6-.14,9.1Zm.46-78.7c-3.26-.13-5.63.28-6.3-2.62-.17-.74-2-.51-1.87.15.82,3.9.51,7.76.11,11.65a1.69,1.69,0,0,0,1.22.49c1.82-.62,3.64,1.23,6,0-2.5-1.24-4.8-2.17-4.74-4.87S279.71,215.84,282.37,213.66Z"/><path class="cls-3" d="M342,178.57c-.37-5.82-.56-5.95-5.71-4.11l-5.33-.14,2.82-5.74c4-.11,4.55-3.05,4.79-6.08.42-5.4-1-10.4-3.15-15.34-1.63-3.73-3.78-5.71-8-4.56a19,19,0,0,0-9.6-1.84c0-.89,0-1.78,0-2.67-.52-3.33-3.28-1.44-4.93-2.11l.12-2.73c1.18-.53,3.58.58,3.33-1.72-.19-1.78-2-1-3.3-.79a10.18,10.18,0,0,1-2,0,2.69,2.69,0,0,1,2.35-2.71c1.11-.27,2.5-.63,2.09-2.12s-1.9-.86-3-1a22.3,22.3,0,0,0-2.45,0c7.81-10,23.32-9.89,32,.53s11.8,22.68,10.41,36.13c-.41,3.93-.78,7.86-1.17,11.79l-.17,1.05c-3.58-.09-5.67,3.2-8.88,3.93Z"/><path class="cls-3" d="M101.4,284.45c-4.63,1.62-6.87,8-13.4,6.17-.65-.87,1.08-2.58-.35-3.75-.3.05-.72,0-.87.16-1,1.16.28,3.6-2.12,4a2.49,2.49,0,0,1-2.94-1.36c-.78-1.8-.35-3.4.66-5.14,9.72-16.77,9.34-33.9,1.43-51.15-2.52-5.48-2.15-6.49,3.64-6.64,3-.08,1.44-2.34,2-3.6l2,.31c.12.47.09,1.22.38,1.37,3.37,1.8,6.61,3.65,7.9,7.66.16.48,1.41.61,2.16.91q2.16,6.53,4.33,13a4.36,4.36,0,0,0,.38,3.26c1.12,8.3-.75,16.45-1.28,24.67-1.51,2.23-4.67,3.62-3.64,7.15Z"/><path class="cls-3" d="M368,255a44.67,44.67,0,0,1,15.56-24.18l1.79-.53a1.79,1.79,0,0,0,2-1.25l1.17-.79-.06,0,2.94-1.88,1,0c1.32,1.56,2.39,3.49,4.93,3.15-1.41,3.4-2.28,7.19-6.68,8.21-.7.16-1.33,1-1.84,1.63-7.85,9.92-9.43,21.42-6.87,33.25,1.25,5.73,4.29,11.41,10.62,14,1.2.49,2.71,1.15,3.23,2.16,1.25,2.44,2.83,2.65,5.31,1.39-1.4,2,.37,5.73-3.87,5.33-.11-.73-.06-1.58-1.17-1.54-.11,0-.31.2-.31.31-.09,1.1.77,1.09,1.49,1.22l-.07,4-2.2-.52c-.75-3.58-2.86-4-5.79-2.49-2.2-.13-3.41-2.93-5.93-2.2-1.14-3.49-4.86-4.47-7-7.38C369.23,277.13,366.8,266.63,368,255Z"/><path class="cls-3" d="M137.2,294.87a4.31,4.31,0,0,1,3-4.56c6.2-2.62,6.53-4.25,1.73-8.4a4.45,4.45,0,0,1-.71-1.27l2.16-1.51c1.13.17,2.49,0,3.34.6,1.51,1,2.48,3.76,4.79,1.79s5.14-3.35,5.05-6.93a37.45,37.45,0,0,0-.34-5.91c-.41-2.17.15-3.73,2.24-4.24,3.2-.79,3.45-3,3.38-5.69-.21-8.05-1.43-15.55-9.8-19.45-.78-.36-1.63-.54-1.08-1.68,1.93-4.07-1.77-1.65-2.74-2.38h0c-5.4-3.94,1.07-6.3,1.27-9.5l1.85.73c1.14,4.16,2.12,4.86,5.08,3.65,1.48-.48,2.49.34,3.54,1.19,10.66,8.67,15.52,20,13.31,33.43-2.36,14.37-10.85,24.09-25.07,28.38-3.58-2.88-7.33-2.11-8,1.67l-1,.49Z"/><path class="cls-3" d="M286,186.4c-.32-2.48-2.26-1.79-3.78-2,0-2.29-.23-4.6-.08-6.88.21-3.19-1.64-3.87-4.23-4-2.9-.21-3.72,1.34-3.66,3.9,0,1.64-.14,3.28-.22,4.92-2.39.07-1.38-2.63-3.1-3.65l-2.68,5.84-.3,1.74c-6.27.54-12.47-.28-18.69-.89l-1.23-.3c-10.28-1.56-20.55-3.15-30.83-4.67-2.67-.39-5.2-.94-6.94-3.26.66-2.45,3.94-2.86,4.3-5.53l71.69,1.14c.38,4.87,3.55,7.53,7.47,9.74,2.12,1.19,4.88,1.18,6.43,3.42-3.18,1.17-6.8.32-9.83,2.12Z"/><path class="cls-13" d="M268,186.27l.3-1.74c1.35-.05,1.62.73,1.45,1.86-1.75,3.4-.86,7-.92,10.57q-.73,47.56-1.65,95.11l-6.86,0q.8-48.32,1.61-96.61c.06-3.63-1.07-8.14,5.22-7.57C267.33,187.88,267.67,186.82,268,186.27Z"/><path class="cls-12" d="M246.22,287.88c-12.6-3.62-16.51-13.56-17.37-25.05-.89-11.95,6-19.3,16.29-23.95l1.9.06Q246.64,263.4,246.22,287.88Z"/><path class="cls-13" d="M281.91,292.36q.66-34.46,1.33-68.9a7.77,7.77,0,0,0,1.91-7.61c.24-.18.47-.35.72-.52,3,1.48,3.66,4.69,3.31,7.14-.56,3.85.22,7.53.14,11.29-.43,19.54-.69,39.09-1,58.64A17,17,0,0,1,281.91,292.36Z"/><path class="cls-14" d="M300.15,185.92c-1.55-2.24-4.31-2.23-6.43-3.42-3.92-2.21-7.09-4.87-7.47-9.74a.85.85,0,0,1,0-.57c4.71,1.41,7.3-.43,8.12-5.17.31-1.79.83-3.54,1.26-5.31,3.52-1.07,8.36-.8,7-6.86,2.11-2.6,2.75-5.92,4.28-8.81,1.38-.86,2.32-2.64,4.38-2.12-.25.63-.5,1.26-.74,1.89-1.47,2.55-3.2,5-3.5,8-1.69,4.47-4,8.77-3.5,13.81-.32,0-.65.09-1,.1-3.23.09-7.3-.55-8.08,3.65-.72,3.89,3.18,4.68,5.9,6.14,3.53,1.88,7.89,2.61,9.93,6.72A29.89,29.89,0,0,1,300.15,185.92Z"/><path class="cls-5" d="M87.73,199.25l-2.1,6.93c-3.31,4.5-6.34,9.26-11.14,12.42C74.05,217,73.1,217,72,218c-1.38,1.2-3,.88-4.6.92l0,0c-.82-1.7-1.31-3.07,1.56-3.09,1.79,0,4.34,1.17,5.21-1.17.8-2.14-1.59-3.31-2.79-4.79a2.64,2.64,0,0,0,.21-.88c4-3,5.92-7.23,7.27-11.85Z"/><path class="cls-3" d="M310.28,184.27c-2-4.11-6.4-4.84-9.93-6.72-2.72-1.46-6.62-2.25-5.9-6.14.78-4.2,4.85-3.56,8.08-3.65.33,0,.66-.07,1-.1,2.54,4.06,4.6,8.49,8.87,11.17.19,2.42,1.17,2.61,2.8,1l3.91.1.91.46c0,.92.07,1.84.1,2.76A29.6,29.6,0,0,1,310.28,184.27Z"/><path class="cls-7" d="M288.31,292.4c.32-19.55.58-39.1,1-58.64.08-3.76-.7-7.44-.14-11.29.35-2.45-.27-5.66-3.32-7.14,6.5-5.45,5.52-14.19-2-18.22,0-.4.08-.8.11-1.21,3.25-.91,4.56-4,6.69-6.08.66,13.21-.18,26.41-.31,39.62-.19,19.46-.58,38.93-1,58.39C289.32,289.37,290.07,291.21,288.31,292.4Z"/><path class="cls-11" d="M74.49,218.6c4.8-3.16,7.83-7.92,11.14-12.42l3.49.1c1.87.05,3.37.67,3.37,2.81,0,2.59-2,2.22-3.63,2.11-4.48-.31-6.37,1.19-4.6,5.83,1,2.74-1.57,3.65-2.91,5.18l-10,.12C71.19,220.08,73.69,220.06,74.49,218.6Z"/><path class="cls-5" d="M88.9,192.2c-.08.65-.15,1.31-.23,2-4-.41-4.75-5.53-8.68-6.08-1-2.24-2.16-4.45-2.3-7,3-.77,4-4.62,7.32-4.84l1.92,4.11c.13,1.09.18,2.21,1.17,3C88.31,186.29,89.39,189.18,88.9,192.2Z"/><path class="cls-9" d="M246.22,287.88q.41-24.47.82-48.94l.87-52,.12-1.82,1.23.3c-.31,13.13-.68,26.24-.92,39.36-.43,22.44-.77,44.87-1.15,67.31C243.52,291.44,247,289.17,246.22,287.88Z"/><path class="cls-6" d="M267.13,292.07q.84-47.55,1.65-95.11c.06-3.57-.83-7.17.92-10.57,0,4.64.17,9.29.1,13.93q-.74,45.92-1.54,91.81Z"/><path class="cls-10" d="M247.91,186.9l-.87,52-1.9-.06c.26-15.28.54-30.56.74-45.84,0-1.75.72-3.69-.89-5.18C245.7,186.74,246.84,186.94,247.91,186.9Z"/><path class="cls-14" d="M320.1,183.16c0-.92-.07-1.84-.1-2.76l1.08-.53c2.68-.57,5.39-1.08,7.23-3.45l2.67-2.1,5.33.14c-.36,5.4-2.33,7.57-7.35,8C326,182.72,323.05,182.93,320.1,183.16Z"/><path class="cls-3" d="M136.71,152.88c1.15.05,2.31,0,3.45.16,1.36.14,3.45-.49,3.45,1.69,0,2.58.6,5.51-1.11,7.65-1.19,1.48-3.42.83-5.15.47-1.47-.3-.61-2.06-1.38-2.9C134.24,157.39,136.69,155.26,136.71,152.88Z"/><path class="cls-4" d="M88.9,192.2c.49-3-.59-5.91-.8-8.87l7.9.12c0,2.88-.27,5.78.93,8.52Z"/><path class="cls-14" d="M80,188.08c3.93.55,4.66,5.67,8.68,6.08-.31,1.69-.63,3.39-.94,5.09l-8.8-2.13C79.28,194.11,79.64,191.1,80,188.08Z"/><path class="cls-13" d="M290.62,189.82c-2.13,2.13-3.44,5.17-6.69,6.08.47-3.21-2.57-7.19,2.07-9.5l4.32,1.64C290.41,188.63,290.51,189.22,290.62,189.82Z"/><path class="cls-11" d="M314.6,213.14c-2.69-.25-5.21-1.65-8-1.21a2,2,0,0,0-2,.95v0h-1c2.33-3.06,8.78-4.14,11.27-1.84C315.63,211.75,315.32,212.52,314.6,213.14Z"/><path class="cls-5" d="M140.15,294.8c.69-3.78,4.44-4.55,8-1.67A13.59,13.59,0,0,1,140.15,294.8Z"/><path class="cls-10" d="M290.3,287c.36-1.08-.57-3,1.6-2.83a2.33,2.33,0,0,1,2.33,2.6,3.35,3.35,0,0,1-2.62,3.13C289.51,290.12,290.71,288,290.3,287Z"/><path class="cls-5" d="M156.39,230.13c-3,1.21-3.94.51-5.08-3.65C153.25,227.35,155.9,227.23,156.39,230.13Z"/><path class="cls-11" d="M349.74,203.64c4.51.6,8.8-.43,13-1.78l-.1,1.93-7.89,1.05C353.12,204.4,351.11,205.36,349.74,203.64Z"/><path class="cls-11" d="M303.42,222.87l-1-.09c-1.1-3-3.37-6,.11-8.93h0A23.29,23.29,0,0,0,303.42,222.87Z"/><path class="cls-11" d="M329.83,203.53l5,.08C333.12,205.14,331.48,203.82,329.83,203.53Z"/><path class="cls-11" d="M339,186.46l-.09,6A4.57,4.57,0,0,1,339,186.46Z"/><path class="cls-11" d="M339.88,195.46a3.17,3.17,0,0,1,2,3.06C339.81,198.39,339.85,196.92,339.88,195.46Z"/><path class="cls-10" d="M290.21,294.65c.72.14,1.57.13,1.48,1.23a.43.43,0,0,1-.31.3c-1.1.05-1.06-.8-1.18-1.53Z"/><path class="cls-10" d="M290.2,294.65l-2.16-.44c.09-.12.15-.33.26-.37a1.54,1.54,0,0,1,1.91.81Z"/><path class="cls-11" d="M346.76,202.59c1.11,0,2.29-.12,3,1.06C348.65,203.6,347.46,203.8,346.76,202.59Z"/><path class="cls-11" d="M324.77,202.23l2.17.44c-.09.13-.15.34-.26.37a1.52,1.52,0,0,1-1.9-.82Z"/><path class="cls-11" d="M341.83,198.5l2,2.05A1.82,1.82,0,0,1,341.83,198.5Z"/><path class="cls-11" d="M340.1,183.42a2.23,2.23,0,0,1-1.05,2.08A2.12,2.12,0,0,1,340.1,183.42Z"/><path class="cls-11" d="M324.78,202.22l-1.3-.39c.75-.91.94,0,1.29.4Z"/><path class="cls-11" d="M338.92,193.39a2.29,2.29,0,0,1,1,2.1A2.09,2.09,0,0,1,338.92,193.39Z"/><path class="cls-11" d="M343.79,200.53l1,1Z"/><path class="cls-11" d="M302.57,213.85l1-1h0l-1,1Z"/><path class="cls-9" d="M2.39,82.61c.25.34.49.69.73,1l-1.29.11C2,83.37,2.21,83,2.39,82.61Z"/><path class="cls-1" d="M715.21,290.77c-4.2,3.2-9.59,3.48-14.16,5.79l-1.73,0c-.8-2.5-2.71-3.72-5.08-4.42.8-4.76,1.58-9.52,2.39-14.27q3.21-18.64,6.45-37.3c.13,6.61,2.89,9.44,10.93,11.25C714.57,264.78,715.44,277.76,715.21,290.77Z"/><path class="cls-12" d="M714,251.8c-8-1.81-10.8-4.64-10.93-11.25l.42-3.9c2.15-3.3,4.46-6.14,9.09-4.18.57.25,1.52-.39,2.29-.61Z"/><path class="cls-9" d="M714.88,231.86c-.77.22-1.72.86-2.29.61-4.63-2-6.94.88-9.09,4.18,0-4.18,1.81-8.27.59-12.51,2.21-1.73,5.47-.6,7.62-3.1.93-1.07,1.5,2.77,3.57,1.76,2,2.65,1.12,5.34.07,8C715.19,231.17,715,231.51,714.88,231.86Zm-3.11-6.06a11.54,11.54,0,0,1-.88,2.68c-.86,1.37-1.28,2.91.92,2C713.72,229.73,711.79,227.45,711.77,225.8Z"/><path class="cls-14" d="M715.35,230.82c1-2.68,1.94-5.37-.07-8l.83-1.11c2.42,0,2.55,1.73,2.38,3.47a8.76,8.76,0,0,0,1.26,5.2C718.31,231.36,716.79,230.72,715.35,230.82Z"/><path class="cls-7" d="M442.71,89.13c.19.47.34,1,.57,1.39,1.41,2.66-1.75,7.28,2.37,8.23a43.34,43.34,0,0,0,8.74.68q42.66.63,85.33,1.42c1,0,2,.11,3,.17,1.14,7,6.19,11.08,11.42,15l3.75,25.11a1.28,1.28,0,0,0,0,1c0,1.69,0,3.38,0,5.07-.52,7.31-1.44,14.45-8.29,19-2.77-1-5.37-4-4.36-5.84,1.85-3.32-.15-5.48-.38-8.21a45.18,45.18,0,0,0-11.2-26.22c-15-17.47-33.93-13.42-46,1.31-6.57,8-8.78,18.93-10.08,29.5-.31,2.56-.33,5.3-2.48,7.27-4.65-3.8-7.82-8.72-10.49-14-.19-2.18,1-3.85,2.25-5.35,3.18-3.77,6.62-7.32,9.66-11.2.86-1.08,3.16-2.49,1.66-4.06-1.19-1.25-3.42-.85-5.13.07-.73.39-1.38.93-2.12,1.3-5.9,3-11.12,8.08-18.65,6-7.24-4.23-14.49-8.38-23.11-3.47l-.15-2.88c1.83-.1,3.65-.3,5.47-.29,6.21,0,6.61-.28,6.72-6.25q.34-17.47.68-34.95A1.94,1.94,0,0,1,442.71,89.13Z"/><path class="cls-12" d="M549.55,166.13c6.85-4.54,7.77-11.68,8.29-19,5.22-5.2,12.53-5.62,18.93-8,8.77-3.2,17.92-5.33,26.86-8.07a24.18,24.18,0,0,1,9.28-1l-.09,3c-.12.1-.34.22-.33.27a4.82,4.82,0,0,0,.31.7l-.79,47c-9.23,2.55-18.57,4.76-27.5,8.3-10.25,4.07-23.16,1.33-29.28-8.51-2.71-4.35-3.77-9.44-6.8-13.57C548.81,166.9,549.18,166.52,549.55,166.13Z"/><path class="cls-13" d="M612,181.06l.79-47,0-1,.09-3,.15-1.64a75.94,75.94,0,0,1,13.9.19c0,2.48,0,5,0,7.45q-.46,32.66-.95,65.31c-.05.58-.09,1.15-.13,1.73-.27,7.2-.27,7.2-7.46,7-2.12,0-4.24-.13-6.36-.2Zm10.81,12.71c0-3.32,0-6.63.19-9.94.13-2.69-.41-4.44-3.69-4.51-3.08-.07-4.07,1.23-4.07,4.13,0,7-.08,13.92-.36,20.87-.11,2.87,1,3.67,3.71,3.75,3,.08,4.23-.75,4.08-3.88C622.51,200.73,622.74,197.24,622.82,193.77Zm-3.7-17.66c2.71-.52,4.81-2,5-4.71a4.75,4.75,0,0,0-9.49-.42C614.43,173.78,616.51,175.32,619.12,176.11Z"/><path class="cls-6" d="M554.12,116c-5.23-3.9-10.28-8-11.42-15l7.78.2c2.74,1.92,3.07,5,3.92,7.89l-.24,6.84Z"/><path class="cls-8" d="M605.07,116.87,605,123c-2.29-.14-4.6-.12-6.85-.48-1.43-.23-2.91-1-2.81-2.87.1-2.08,1.47-2.76,3.33-2.77Z"/><path class="cls-12" d="M557.89,142.07a1.28,1.28,0,0,1,0-1c0-1.58,0-3.16.08-4.75C558.68,138.31,559.56,140.26,557.89,142.07Z"/><path class="cls-7" d="M554.16,116l.24-6.84C555.54,111.43,555.85,113.72,554.16,116Z"/><path class="cls-7" d="M335.6,83.1c7.75.86,7.94.42,12.19-6.46,1.11-1.79,3.81-3,5.66-4.74,7.09-6.63,13.3-14.13,20.65-20.53,5.46-4.75,11.64-6.58,18.47-7a32.81,32.81,0,0,0,7.85-.95l-.12,3.9c-15.77.25-27.14,8.38-36.38,20.32l-.05.06a3,3,0,0,0-1.93,2c-4.72,4.19-8.34,9.36-12.42,14.11-.91,1.07-1.45,2.23-.53,3.59-3.1-.15-6.46-1.15-9.26-.3-8.06,2.42-16.44,2.11-24.62,3.59-16.05,2.91-31.9,6.28-47.38,11.44-.73.24-2,.09-1.66,1.23s1.65.77,2.58.94c-2.64,1.42-5.63.51-8.37,1.28a1.08,1.08,0,0,0-1.84.16c-11.52.68-21.15,4.48-26.16,15.89-1.07.33-1.18,1.17-1.12,2.11l.15,1.37c-3.23,2.73-5.8.56-8.44-1.12,2.22-5.15,7.06-8.78,8.43-14.43,4.55-4.27,10.64-5.54,16.16-7.54A209.51,209.51,0,0,1,279,92.85c8.64-1.66,17.2-4,26.93-4.22-2.15-2.36-4.05-1.77-5.68-1.8-26.62-.5-53.23-.92-79.85-1.41-1.79,0-3.67.41-5.38-.54,9.16.06,18.31,0,27.46.17,24.32.38,48.65.75,73,1.29a76,76,0,0,0,17.3-1.94c1.79,1.56,2.72,1.14,2.83-1.22Z"/><path class="cls-3" d="M231.3,109.64c-1.37,5.65-6.21,9.28-8.43,14.43a8.24,8.24,0,0,1-5.13,1.58q-32-.69-64-1.28a84.78,84.78,0,0,1,1.5-16.05C180.62,108.36,206,108.69,231.3,109.64Zm-45.4,9.5c2.42-.93,7,1.53,6.93-2.27,0-3.41-4.58-2-7.09-2-2.2.07-6.38-2.09-6.31,2C179.49,120.65,183.73,118.05,185.9,119.14Z"/><path class="cls-13" d="M264.7,28.22a266.35,266.35,0,0,1,28,.6c0,3.63-.18,7.26,0,10.88.12,3-.91,4.75-4,5-4.77,2-10.33,2-14.46,5.64-3-.89-4.91,2.53-7.83,1.94-2.29-1.1-2-3.18-1.95-5.17Q264.55,37.67,264.7,28.22Z"/><path class="cls-2" d="M335.6,83.18c-.11,2.36-1,2.78-2.83,1.22A3.79,3.79,0,0,1,335.6,83.18Z"/><path class="cls-5" d="M664.47,165c2.79,3.82,7.1,3.49,11.09,4l9.53,2.72c1.68,1.75-.35,2.18-1.13,2.85-3.52,3-4.14,6.16-.76,9.66-1.15,4-4,7.43-3.3,11.9a53.51,53.51,0,0,1-11.21-3.81c0-3.81.42-7.26,5.74-6.12,1.72.37,3.59,1.34,3.75-1.92.16-3-.76-4.38-3.87-4.09-3.45.32-5.86-.36-5.21-4.81.45-3.06-1.88-3.26-4.25-3.37-2.56-.13-3.83.75-3.47,3.4.54,4-1.44,5-5,4.47-2.83-.41-3.34,1.31-3.21,3.65s1.06,3.26,3.53,2.59c3-.83,5,0,4.27,3.71l-2.82-.39c-4.09-2.26-9.27-1.63-13-4.88-1.42-3.21.3-6,1.19-8.9,3.14.21,5-1.72,5.68-4.31.54-2-1.44-2.55-3.18-2.69.16-1,.33-2,.49-3,1.65-4,4.38-4.68,8.2-3A72.46,72.46,0,0,0,664.47,165Z"/><path class="cls-6" d="M264.7,28.22q-.17,9.44-.32,18.88c0,2-.34,4.07,1.95,5.17-.72,3-3.65,1.47-5.39,2.58a97.44,97.44,0,0,1-9.68,4.89q.3-15.83.61-31.64Z"/><path class="cls-13" d="M441.84,88.85q-.34,17.48-.68,35c-.11,6-.51,6.3-6.72,6.25-1.82,0-3.64.19-5.47.29-2.61-2.05-.52-5.2-1.77-7.57-.83-3.23,2.07-7.17-1.88-9.8a12.53,12.53,0,0,0-6-6.16c-.15-.47-.29-1.34-.46-1.35-6.55-.22-5.43-4.89-5.35-9q.59-32.85,1.11-65.7l27.9.29q0,5.6,0,11.19,0,3.72,0,7.44Q442.21,69.25,441.84,88.85Z"/><path class="cls-11" d="M448.09,24.9l-.34.12-.09-.51c.12,0,.27,0,.36.09S448.07,24.79,448.09,24.9Z"/><path class="cls-3" d="M96,183.45l-7.9-.12c-1-.76-1-1.88-1.17-3,14-11.73,16.12-35.51,4.38-50.19-4.8-7.95-12.53-11.83-20.81-14.94,6.17-1.86,11.94-.28,17.59,2.09,20.51,8.61,30.71,34.57,18.45,54.82C103.77,176.72,101.33,181.37,96,183.45Z"/><path class="cls-15" d="M70.5,115.23c8.28,3.11,16,7,20.81,14.94-6.21,0-12.6.88-18.09-3.21a3.37,3.37,0,0,0-2.16-3.15c-3.45-1.72-7-3.32-6.9-8.1C66.17,114.16,68.37,115.16,70.5,115.23Z"/><path class="cls-3" d="M104,187.35c0,1.64-1.13,2.72-2.43,2.44-1.75-.38-3.41-1.76-3.1-3.78a2.94,2.94,0,0,1,3.29-2.39C103.85,183.9,104.08,185.6,104,187.35Z"/><path class="cls-5" d="M441.84,88.85q.38-19.6.76-39.21c6.86,1.22,13.8,2.18,20.29,4.93,1.66.71,3.45,1.29,4.59,2.87l-3.37.13c-4.79-2.25-10-3-15.08-4.12-3.15-.71-5,0-4.86,3.87s-.06,7.9-.11,11.85c-.09,4.49,0,9-.33,13.47-.23,3.35.69,4.73,4.34,4.75q23.71.15,47.44.79c3.22.08,4.7-.92,4.4-4.18,1.52.93,2.61,2.12,2.48,4.06-4.28,1.62-8.7,1.84-13.24,1.75-15.48-.31-31-.46-46.44-.68A1.94,1.94,0,0,0,441.84,88.85Z"/><path class="cls-2" d="M268.65,104.38c-.93-.17-2.27.18-2.58-.94s.93-1,1.66-1.23c15.48-5.16,31.33-8.53,47.38-11.44,8.18-1.48,16.56-1.17,24.62-3.59,2.8-.85,6.16.15,9.26.3l50.68.56-.18,9.41c-13.63-.23-27.28,0-40.88-.77-22.83-1.23-44.94,2.7-67,7.87-1.73.4-2.91,1.52-4.45,2.07a8.29,8.29,0,0,0-5.84-2C277.12,104.64,272.88,104.47,268.65,104.38Z"/><path class="cls-3" d="M399.67,88,349,87.48c-.92-1.36-.38-2.52.53-3.59,4.08-4.75,7.7-9.92,12.42-14.11,1.36,0,2.07-.62,1.93-2l.05-.06,1.31.29c-.7,3.12,1.5,2.2,2.9,1.94,10.51-2,21.24-1.06,31.8-2.42Z"/><path class="cls-5" d="M419.34,106.81a12.53,12.53,0,0,1,6,6.16c-.75,2,1.38,4.53-1.28,6.09a7.79,7.79,0,0,0-1.2,1.52c-1.14,2.49-1.9,6.23-4.15.45-.75-1.93-2.76-.89-3.69.2-3.75,4.37-8.53,5.8-14.05,5.45-.79-.1-1.62-.29-1.89.82-1.09.4-2.15.88-3.27,1.17-1,.25-2.06.39-2.56-.79a1.9,1.9,0,0,1,.79-2.6c6.91-2.89,5-9.27,5.87-14.53,4.21-4.21,8.57-7.63,15-4.29C416.13,107.09,417.86,106.72,419.34,106.81Z"/><path class="cls-4" d="M399.93,67.49c-10.56,1.36-21.29.43-31.8,2.42-1.4.26-3.6,1.18-2.9-1.94a7.23,7.23,0,0,0,4.13-2.46c6.37-7,13.47-12.89,23.21-14.8,4.44-.87,5.49-.22,5.79,4.3.15,2.17-1.81,5.12,1.7,6.46C400,63.48,400,65.48,399.93,67.49Z"/><path class="cls-5" d="M400.06,61.47c-3.51-1.34-1.55-4.29-1.7-6.46-.3-4.52-1.35-5.17-5.79-4.3-9.74,1.91-16.84,7.76-23.21,14.8A7.23,7.23,0,0,1,365.23,68l-1.31-.29c9.24-11.94,20.61-20.07,36.38-20.32Z"/><path class="cls-12" d="M268.65,104.38c4.23.09,8.47.26,12.7.25a8.29,8.29,0,0,1,5.84,2c-1.27,7.64-5.9,11.89-13.36,13.36-3.57.71-7.14,1.49-10.71,2.23-8.64,1-17.29,1.92-25.93,3a17.58,17.58,0,0,1-5.88,0l-.15-1.37,1.12-2.11c5-11.41,14.64-15.21,26.16-15.89l1.84-.16C263,104.89,266,105.8,268.65,104.38Z"/><path class="cls-3" d="M499.91,84c.3,3.26-1.18,4.26-4.4,4.18q-23.72-.6-47.44-.79c-3.65,0-4.57-1.4-4.34-4.75.31-4.47.24-9,.33-13.47a196,196,0,0,1,25.59,2.35c1.1.17,4.12.63,2.52-1.74-2.73-4-3.62-9.33-8.06-12.21l3.37-.13A121.23,121.23,0,0,1,499.91,84ZM476.1,66.73l-.43-.42.38.47c1.33,6.51,2.72,7.53,9.09,6.62C482.27,69.17,481.68,68.73,476.1,66.73Z"/><path class="cls-6" d="M626,201.41q.48-32.65.95-65.31c0-2.48,0-5,0-7.45l7.31.06q-.54,20-1.09,40l-.72.76c-6.77,5.4-6.86,11.51-.25,16.78l.66.65c-1,3.43-.62,7-.87,10.47C629.27,197.64,628,200,626,201.41Z"/><path class="cls-9" d="M633.18,168.71q.54-20,1.09-40l1.81-.28a.39.39,0,0,1-.19.47,4.77,4.77,0,0,0-.75,3.56l-.14,8c0,.67,0,1.34,0,2l0,2c0,6-1.06,12.05.53,18-2,4.52-.74,9.31-1.11,14l-.09,12q-.15,6-.29,12.09c0,2.3-.05,4.61-.08,6.92a5.06,5.06,0,0,0,.78,3.91,1.61,1.61,0,0,1-2.17-.67c.06-1.18.11-2.35.17-3.53l.18-8.53a1,1,0,0,0-.92-1.27l.07,0c.25-3.49-.12-7,.87-10.46Q633,177.81,633.18,168.71Z"/><path class="cls-12" d="M635.14,132.46a4.77,4.77,0,0,1,.75-3.56c1.63,0,3.27-.17,4.89-.09,3.7.21,6-1.15,6.19-5.12,4,.29,8.12-1.12,11.87,1.23A4.14,4.14,0,0,0,661,128c2.29,1.76,4.8,1.07,7.28.67l1.85.23-.75,31.91c-2.39.52-3.18,2.93-4.94,4.2a72.46,72.46,0,0,1-6.9-2.3c-3.82-1.71-6.55-1-8.2,3-2.49,0-5-.17-7.49-.11-2.72.07-5.35.12-6.42-3.12-1.59-6-.55-12-.53-18,.64-.09,1.41-.14,1.43-1s-.76-.91-1.4-1q0-1,0-2C638,137.83,638.05,135.17,635.14,132.46Z"/><path class="cls-8" d="M668.31,128.68c-2.48.4-5,1.09-7.28-.67C663.46,128.25,666,127.64,668.31,128.68Z"/><path class="cls-5" d="M531.21,296.71c-.5-.72-1.07-.42-1.65-.12-.2-.61-.22-1.4-.63-1.79-8-7.59-10-16.79-7.36-27.24,3.5-7.8,8.73-14.29,17.4-15.71,10.1-1.65,20.48-2.29,30.39,1.62a7.34,7.34,0,0,0,5.14,0c11.59-3.08,23.17-3.25,34.57,1.08.07,1.17,1.17,1.19,1.85,1.67,4.43,3,6,8.3,9.49,12,.64,1.34-.11,3.44,2.11,3.93l-.19,10.1c-2.56,2.91-4.07,6-1.83,9.83-4.36,1.39-8.77,2.73-8.38,8.7-8.88.2-17.83,1.92-26.61.65a116.67,116.67,0,0,0-28.87-.62C548.16,301.72,539,302.26,531.21,296.71Zm48.1-7.21,1-1c1.12-.72.94-1.9,1-3,1.2-.69,1-1.89,1-3,1.33-.43.55-3.24,3-2.52,2.63.77,3.79-1,4-3.09.27-2.39-.77-4.12-3.61-4.25a11.79,11.79,0,0,1-3.14-1.09c-.07,3.72-.13,7.36-.19,11-1.14.72-1,1.9-1.05,3-1.17.71-1,1.9-1,3l-1,1-.25.38Zm-44.12,5.34c.11.76.61,1,1.27.84.12,0,.22-.2.32-.31l-1.51-.62c-.19-1-1-1.15-1.78-1.29-2.39-2.58-2.49-4.86.59-7.09a22.3,22.3,0,0,0,3.23-3.6c1.79-2.89,1.6-5.16-2-6.39-1.37-.49-2.72-1.08-4.13-1.45-5.86-1.55-6.67-3.59-3.42-8.66,2.61-4.06,5.57-.08,8.35-.37,1.48,1.55,3.22,3.34,5.38,2.16,1.88-1,2.14-3.44,2.19-5.54a14.58,14.58,0,0,0-.52-2.87c-1.44-1.54,2.47-6.2-3-5.34-7.64,1.22-15.15,9.26-16.5,17.36-1.55,9.29,2.14,17.93,9.47,22.15A1.63,1.63,0,0,0,535.19,294.84Zm43.69-33.41,3,8.49c1.35-3.9-.07-6.6.18-9.31a28.08,28.08,0,0,0-.26-2.91c-.21-1.11.72-3-1.4-3-1.6,0-3.43.29-4.43,1.61s.71,2.2,1.39,3.19C577.85,260.17,578.38,260.79,578.88,261.43Zm-8,16.58a3.35,3.35,0,0,1,.27,3.36c-1.3.29-2.09.76-.69,2-1.36,6.32-5.77,10.46-10.95,14.54,12.44-1.33,20.4-10.56,20.16-22.75-.2-10.83-9.1-20.29-18.63-19.81-.17-.73-.09-1.66-1.23-1.65a.48.48,0,0,0-.34.31c0,1.15.89,1.09,1.61,1.3,4.6,3.74,8.6,7.9,9.63,14.09-1.44,1.12-.71,1.65.56,2a6.66,6.66,0,0,1,.29,4C570.53,276.09,570.59,277,570.83,278Zm28.3-22.92c13.7,10.55,17,29.7-.2,43.2,10.27-.39,19.14-9.74,19.52-20.59A21.75,21.75,0,0,0,599.13,255.09Zm-61.34,41.14c3.71,1.91,6.73,1.73,9.72,1.6,7.92-.35,8.54-1.47,4.66-8-3-5-4.2-5-7.57-.17C542.91,292.05,542.92,296.09,537.79,296.23Zm38.14.53c4.61,1.64,7.59,2.05,11,1.71,7.32-.73,7.78-1.6,4.1-7.84-3.08-5.24-4.52-5.21-7.77-.13C581.59,293.11,581.26,297.16,575.93,296.76ZM594.09,257c-1.41,1.85-1.09,4.5-1.33,6.93-.27,2.65.27,5.58,3.45,5.24,2.53-.26,5.64-1.1,7.12-3.66C604.07,264.28,596.65,257.07,594.09,257Zm-39-1.21c-.45,2.72-.82,4.67-1.08,6.63-.35,2.58-.29,5.42,2.66,6.14,2,.5,3.84-.85,5.17-3,1.81-2.85.77-4.61-1.43-6.25C558.87,258.25,557.21,257.24,555.1,255.83Zm51.41,23.23c-.16-1.58.39-3.44-1.84-2.88-3,.76-7.21.5-7.06,5.23.09,3,3,6.63,4.62,6.23C606.24,286.7,605.35,281.91,606.51,279.06Zm-58.71.84c1.36-.68,3.4-1.43,3.4-3.69,0-1.77-.86-3.84-3-3.92a3.75,3.75,0,0,0-4.22,3.85C544,277.94,545.08,279.57,547.8,279.9Zm17.07,6.15a13.68,13.68,0,0,0,2.61-7.38c.1-1.09.89-3-1.24-3-1.62,0-3.93,0-3.89,2.63S562.6,283.85,564.87,286.05Zm21.38-32.12c-1.32-.33-2.26-.6-2.83.46-.09.17.12.73.27.76A2.3,2.3,0,0,0,586.25,253.93Z"/><path class="cls-4" d="M612.12,300.83c-.39-6,4-7.31,8.38-8.7a27.27,27.27,0,0,1,4.43,0c4.45.76,5.78-1.18,5.59-5.41-.2-4.76.14-9.53.25-14.3,1.66,0,3.33-.11,5,0,4.35.29,6.13-1.31,5.26-5.93a31.93,31.93,0,0,1,0-8.46c.56-7,.33-7.31-6.63-7.36l-3.49,0q.1-8.76.23-17.53c1.68-3,2.6-6.81,7.25-6.45l5.82.2c.68,2,2.61,2.56,4.14,3.59-.3,18.62-.54,37.25-1,55.87-.08,3.37.75,5,4.37,5.81,5.3,1.11,10.58.65,15.87.83,8.67.31,8.68.19,8.58,9Z"/><path class="cls-5" d="M676.16,302c.1-8.83.09-8.71-8.58-9-5.29-.18-10.57.28-15.87-.83-3.62-.77-4.45-2.44-4.37-5.81.42-18.62.66-37.25,1-55.87,1.77.42,3.27-.62,4.92-.88,1.53,1.72,1,3.78.93,5.74q-.4,25.71-.85,51.43c0,2.52-.43,5.14,3.51,5.14,12.48,0,25,.13,37.43.21,2.37.7,4.28,1.92,5.08,4.42-.28,4.26-2.5,6.16-6.81,5.94C687.07,302.21,681.61,302.16,676.16,302Z"/><path class="cls-4" d="M46.39,282.74c1.48,3.5,4.59,1.79,6.85,1.78,4.72,0,6.93,2,7,6.59-11.7.55-23.38.07-35.07-.42-.3-2.17-.59-4.35-.89-6.53a2,2,0,0,0,1.06-1.87Z"/><path class="cls-5" d="M24.33,284.16c.3,2.18.59,4.36.89,6.53-5,.21-10.06.46-15.06-.46-.8-5.37,1.7-7,6.73-6.25A57.6,57.6,0,0,0,24.33,284.16Z"/><path class="cls-5" d="M397.14,299.45l.07-4h0c4.24.4,2.47-3.35,3.87-5.33-2.48,1.26-4.06,1.05-5.31-1.39-.52-1-2-1.67-3.23-2.16-6.33-2.56-9.37-8.24-10.62-14-2.56-11.83-1-23.33,6.87-33.25.51-.64,1.14-1.47,1.84-1.63,4.4-1,5.27-4.81,6.68-8.21l4.08-.93c.07.63.05,1.35.89,1.45.17,0,.58-.36.56-.54-.07-.85-.8-.85-1.42-.94q.94-2.48,1.9-4.95a1.44,1.44,0,0,1,2-.63c2.9,3.82,6.22,3.58,9.77,1,1.9-.13,3.18,2.3,5.29,1.3,2.54,1.55,4.63-1.07,7-.74,4.32.39,7.34,4.27,11.77,4.36,1,1.3,2.15,2.49,4,2.29-.07,4.64-.67,9.36,0,13.88.35,2.26.81,3.75-1.17,5.15-.75-1.1-1.46-2.23-2.27-3.28-6.78-8.74-15.81-12.16-26.46-9.91s-17.57,9.27-19.92,20c-2.26,10.32,1,19.07,9.17,25.8,10.53,8.74,28.57,8.56,39-7.15a3.32,3.32,0,0,1,1.83,3.74c-.37,3.35.51,6.58.86,9.85-5.67,1.08-10.43,4.17-15.18,7.14-1.34.84-3.26,1.91-3.11,4.17C416.35,301.28,406.68,302,397.14,299.45Z"/><path class="cls-3" d="M426,300.56c-.15-2.26,1.77-3.33,3.11-4.17,4.75-3,9.51-6.06,15.18-7.14a4.54,4.54,0,0,0,3.38,3.82,20.55,20.55,0,0,0,10.65-.63l1,3a4.21,4.21,0,0,0-.11,1c1,7.72-.93,10.14-9,8.66-5.27-1-10.38-.57-15.56-.79C431.31,304.18,428.21,303.46,426,300.56Z"/><path class="cls-3" d="M493.84,296a2.13,2.13,0,0,0-2.69,1c-7.21.93-13.3,6-21.11,5.19-4.57-.46-7.33-1.25-5.9-6.53,5.22-1.64,10.56-3.13,11.53-9.78,3.68,1.78,7.16,3,11.19.28,1.78-1.2,1-4.48,4-4.23C498,290.32,498,290.32,493.84,296Z"/><path class="cls-16" d="M475.67,285.81c-1,6.65-6.31,8.14-11.53,9.78l-4.78-.11-1-3q1.21-6.93,2.44-13.86l7.73-2.89Z"/><path class="cls-5" d="M389.15,296.44c2.93-1.5,5-1.09,5.79,2.49C392.86,298.44,390.78,298,389.15,296.44Z"/><path class="cls-12" d="M493.84,296c4.13-5.65,4.13-5.65-3-14.11L489.59,280l-.24-1-.93-5.7c.27-1.41.29-2.7,2.14-3.44,10.12-4,20.28-6.74,31-2.32-2.6,10.45-.63,19.65,7.36,27.24.41.39.43,1.18.63,1.79C517.65,296.81,505.72,297.88,493.84,296Z"/><path class="cls-6" d="M46.39,282.74l-21-.45L8.27,281.5c-.29-2.47-.48-5-.88-7.41C5.39,262,5.18,249.67,2,237.78c-2.28-8.93,3-18.35-1.72-27.11-1.2-2.25,2.27-1.12,2-3.32-.48-4.74-.1-9.57-.08-14.37,1.19-.64,1.9-2.21,3.61-1.85,1,3,3.37,4.85,5.87,6.55l2.07.37.08,1.95c.5,2.53-.52,6,3.72,6.28a2.55,2.55,0,0,0,.37.61c-.56,3.45,1.37,5.57,3.93,7.35-.26,1.53,1.26,1.82,1.9,2.72l-.09,1a3.13,3.13,0,0,0-2,3.54c2,18.34,5.39,36.51,6.89,54.91.22,2.8,1.77,3.93,4.64,3.93,7.08,0,14.16.26,21.25.41C52.53,284.65,48.94,281.58,46.39,282.74Z"/><path class="cls-3" d="M191.38,165.3c-13-.22-26-.52-39-.61-3.8,0-5.85-.81-4.2-5.13a16.5,16.5,0,0,0,.51-3.95c.36-3.07,1.72-4.67,5.17-4.6,22.49.48,45,.82,67.48,1.17a7.88,7.88,0,0,1,6,2.95c1.85,2.11,3.79,4.14,5.73,6.18,1,1.07,2.65,2.12,2.18,3.63-.58,1.87-2.58,1-3.95.95-10.83-.12-21.66-.33-32.49-.52l-7.49-.12Z"/><path class="cls-2" d="M295.59,161.71c-.43,1.77-.95,3.52-1.26,5.31-.82,4.74-3.41,6.58-8.12,5.17,4.28-10.91,4-22.81,7.55-33.94a44.43,44.43,0,0,1,15.31-22.31c10.33-7.93,26.25-4.89,35.14,4.12,11.7,11.86,14.72,26.11,14.11,41.71-.16,4.06.18,8.84-4.06,11.73l-2.9-.05c.39-3.93.76-7.86,1.17-11.79,1.39-13.45-1.71-25.7-10.41-36.13s-24.2-10.5-32-.53c-2.32,1.43-3.7,3.67-5.09,5.9a1.79,1.79,0,0,0-1.12,1.79,5.19,5.19,0,0,0-2.1,4.15c-.86.36-1,1.1-.94,1.89l-.62,1c-1.9,4.83-3.64,9.7-3.61,15C296.62,157.12,293.88,159.08,295.59,161.71Z"/><path class="cls-6" d="M399.06,127.5c.27-1.11,1.1-.92,1.89-.82,2.53,5.51,4,11.7,9.92,15a33,33,0,0,0,1.87,16c-2.42,2.89-.14,6-.21,8.95-.14,5.33-1.33,10.76.51,16.05-.83.42-1,2-2.23,1.57-.95-.3-.76-1.36-.76-2.16.07-5.14.08-10.28.26-15.42.1-2.67-1.44-2.91-3.48-2.91-1.81,0-3.27.09-3.3,2.52-.14,11.62-.36,23.23-.57,34.84,0,2.83,2,3,4.05,3.24,2.36.25,2.74-1.21,2.71-3.1a41.63,41.63,0,0,1,.09-4.47c.12-1.25-.63-3.09.88-3.56,1.7-.53,2.37,1.33,3.21,2.5a5.18,5.18,0,0,0-2.07,5.25c.8,4.18-1.25,8.19-.23,12.59.66,2.82-3.77,2.35-5.64,3.78-1.6-2.93-7.46,1-7.46-4.9,0-7.93,1.25-15.89-.25-23.8a.44.44,0,0,1-.42-.44c.07-2,.14-4,.2-6.08l0-2.63c.06-1.66.13-3.33.19-5q.12-6.51.23-13c.05-2.65.09-5.31.14-8Q398.82,140.49,399.06,127.5Z"/><path class="cls-3" d="M249.67,154.93c5.51-1.22,10.3.9,13.62,6.38.58,1,1.75,1.68,1.07,3-.57,1.11-1.73.83-2.66.82-4,0-8,.05-12-.34-4.88-.49-7-4.75-9.56-8.09-1.16-1.49.56-1.88,1.75-1.89C244.25,154.79,246.58,154.87,249.67,154.93Z"/><path class="cls-2" d="M398.56,153.48c-.05,2.65-.09,5.31-.14,8-8.9.19-17.8.42-26.7.52-1.29,0-3.45.84-3.68-1.27-.17-1.55,1.79-1.68,3-2C380.14,156.49,389.22,154.31,398.56,153.48Z"/><path class="cls-5" d="M398.19,174.44c-.06,1.66-.13,3.33-.19,5a44.88,44.88,0,0,0-5.05-3.12c-8.14-3.74-18,.51-19.94,8.52l-.91.43-3.06-.17-.81-.59c-2.48-8.79-9.45-9.93-17-10l.17-1.05,2.9.05Z"/><path class="cls-14" d="M214.56,171.62c-.36,2.67-3.64,3.08-4.3,5.53-2.73.24-5.46.67-8.2.69-5.1,0-9.1-2.1-11.61-6.69Z"/><path class="cls-2" d="M283.13,165.57c-.73,2.65-2.29,4.61-4.86,4.47a4.48,4.48,0,0,1-4.47-5,4.79,4.79,0,0,1,5.28-4.33C281.76,160.9,282.57,163.4,283.13,165.57Z"/><path class="cls-11" d="M386.58,214.27c3.65-.54,7.26,1.46,10.91.15q.18,3.89.34,7.78c-.15.94-.3,1.89-.46,2.83-1,2.86-3.76-.7-5,1.34l-1,0a15.52,15.52,0,0,1,.07-10.54c-2.6.17-5.18.92-6.79-1.5Z"/><path class="cls-15" d="M302.57,213.85l1-1h1a24.52,24.52,0,0,0-.67,3.35c-.16,2.75-1.56,6.8,4,3.94,1-.52,2.52,0,3.81,0,0-2.27-2.5-.32-3.29-2.17,1.37,0,2.55.12,3.72,0,4.16-.26,3.15,2.74,3.24,5.06-3.3,3.44-8.41,3.36-12-.2A23.29,23.29,0,0,1,302.57,213.85Zm6.15,8.72c0-.11,0-.26-.07-.3s-.24-.06-.37-.09l.1.52Z"/><path class="cls-13" d="M54.43,280.79c-7.09-.15-14.17-.41-21.25-.41-2.87,0-4.42-1.13-4.64-3.93-1.5-18.4-4.85-36.57-6.89-54.91a3.13,3.13,0,0,1,2-3.54l2.95.76c.39,1.57,1.6,1.27,2.71,1.18A42.47,42.47,0,0,0,35,222.58c6.73,2.55,13.68,1.62,20.53,2.18,1.89.73,4.73-1.37,5.77,1.91-6.52,8.49-8.63,18.52-10,28.78-.87,6.38,1.18,12.49,2.12,18.66C53.72,276.3,54.6,278.46,54.43,280.79Z"/><path class="cls-3" d="M137.18,281a2.38,2.38,0,0,0-2.32,2.25c.12,6.52-5.07,5.64-8.94,6.56a6.1,6.1,0,0,1-2.48,0c-2-.39-4.91,1.18-5.79-1.38s2.32-2.82,3.69-4.07c12.76-11.52,14.29-25.68,8.61-39.85a19.17,19.17,0,0,0-8.81-9.33c-2.38-1.26-2.49-3.06-2.68-4.51-.3-2.3,2.2-1.66,3.6-2,6.69-1.36,10.56.32,13.9,6.21.6,1.06.86,2.13,2.29,2.17a24.09,24.09,0,0,0,1.47,3A34.14,34.14,0,0,1,137.18,281Z"/><path class="cls-9" d="M101.4,284.45c.06-1,.12-1.95.19-2.92,6.63-2.06,6.63-2.06,3.64-7.15.53-8.22,2.4-16.37,1.28-24.67,2.35-1.84,5.9-1.46,7.75-4.37.87-1.38.88-2.3-.18-3.46-1.24-1.37-2.21-.87-3.29.19-1.52,1.5-3.1,2.93-4.66,4.38q-2.16-6.52-4.33-13a25.2,25.2,0,0,1,22,22.25A25.75,25.75,0,0,1,106.66,283C104.93,283.53,103.15,284,101.4,284.45Zm14.2-12.78-.47-.48.41.54c.35.24.7.49,1.07.72,0,0,.17-.23.26-.35Zm-2.1-2.87.6.39-.36-.62c-1.51-2.66-2.55-5.44-1.56-9.35C108.56,263.67,109.06,265.94,113.5,268.8Z"/><path class="cls-9" d="M63.76,236c5.83-5.39,11.52-4.73,15.21,2.61,6.4,12.77,6.49,25.79-.28,38.61l-1.9-.24a5.43,5.43,0,0,0-.05-1c-.51-2.52-.16-6.22-3.17-6.59S71.23,273,70,274.89c-.58.88-.21,2.7-1.83,2.49-.78-.11-1.64-1.14-2.1-1.95-2.83-5,2-8.21,3-12.33.58-2.4,3-1.74,5-1.31,1.12.23,3.43.73,3.28-.86-.17-1.89-1.65-3.75-2.87-5.4a1.4,1.4,0,0,0-2.43.47c-2.85,6.12-6.61,1.45-8.76,0-2.86-1.94-.38-5.6.45-8.12.57-1.73,3.24-1,4.57.5,2.42,2.79,3.06.32,3.43-1.29.32-1.36-.26-2.91-.3-4.38-.07-2.45.94-5.7-.26-7.15C69.39,233.37,66.38,236.63,63.76,236Zm13.46,2.23c-1.48,4.46-1.8,7.7-.32,10.91.87,1.91,1.91,2,3,0C82,245.22,79,242.68,77.22,238.18Zm3.52,28.51c1.45-.92,1-2.4.94-3.6s1-3.62-1.25-3.51c-2.05.11-1.89,2.42-1.68,4.06C78.91,264.87,79.13,266.26,80.74,266.69Zm-9-14.55c-.09.26-.32.6-.23.75s.51.34.78.5c.09-.29.32-.64.23-.84S72,252.27,71.76,252.14Z"/><path class="cls-8" d="M63.76,236c2.62.68,5.63-2.58,7.44-.4,1.2,1.45.19,4.7.26,7.15,0,1.47.62,3,.3,4.38-.37,1.61-1,4.08-3.43,1.29-1.33-1.53-4-2.23-4.57-.5-.83,2.52-3.31,6.18-.45,8.12,2.15,1.46,5.91,6.13,8.76,0a1.4,1.4,0,0,1,2.43-.47c1.22,1.65,2.7,3.51,2.87,5.4.15,1.59-2.16,1.09-3.28.86-2-.43-4.46-1.09-5,1.31-1,4.12-5.82,7.37-3,12.33.46.81,1.32,1.84,2.1,1.95,1.62.21,1.25-1.61,1.83-2.49,1.24-1.9.47-5.92,3.58-5.54s2.66,4.07,3.17,6.59a5.43,5.43,0,0,1,.05,1c-5.32,5.89-10.67,5.37-14.53-1.4A36.16,36.16,0,0,1,59,266.81c-.37-1.39.44-3.57-2-4C56.24,253.08,57.08,243.78,63.76,236Z"/><path class="cls-8" d="M71.66,209a2.64,2.64,0,0,1-.21.88c-1.43,2.93-4.54,3.06-7,4.22a1.78,1.78,0,0,0-2,.61l-3.08.54-5.75.51-1.17.07-2.76-1-2-.41-3.1-1.9c.83-.44,1.69-.82,2-1.85,1.15.07,2.43-.17,3.41.27a7,7,0,0,0,7.82-1.37c1.89-2.07-1.41-4.22-2.34-6.38-.3-.7-1.14-1.17-1.73-1.75.34-2.06,1.75-1.78,3.18-1.45,0,2.72,2.18,4.4,3.18,6.64,1.2,2.72,3,2.84,5.57,1.64s3.72-2.68,2.07-5.37c4.28-3.54,4.77-8.06,3.35-13.07,4.16.39,3.12-2.64,2.78-4.68-.5-3-2.06-5-5.53-3.12-.08-3.68-2.46-5.44-5.52-6.64a5.65,5.65,0,0,0-3.59-2.08c-.11-2.3.85-3.06,3-2.13,3.8,1.63,7.4,3.53,10,6.92,6.54,8.57,6.4,18.47-.24,27.34C71.29,206.28,67.42,207.51,71.66,209Z"/><path class="cls-11" d="M137.18,281a34.14,34.14,0,0,0,2.54-40.91,24.09,24.09,0,0,1-1.47-3c13.05,4.4,18.31,23.06,10,35.83-1.43,2.2-3.27,4.13-4.92,6.19l-2.16,1.51C139.82,280.52,138.78,283.51,137.18,281Z"/><path class="cls-11" d="M57,262.78c2.4.46,1.59,2.64,2,4a36.16,36.16,0,0,0,3.29,8.72c3.86,6.77,9.21,7.29,14.53,1.4l1.9.24c-1.55,3.8-4.18,6.45-8.38,6.74-4.37.3-7-2.57-9-6A33.4,33.4,0,0,1,57,262.78Z"/><path class="cls-14" d="M64.42,214.07c2.49-1.16,5.6-1.29,7-4.22,1.2,1.48,3.59,2.65,2.79,4.79-.87,2.34-3.42,1.16-5.21,1.17-2.87,0-2.38,1.39-1.56,3.09C64.22,218.7,64.61,216.2,64.42,214.07Z"/><path class="cls-14" d="M52.4,215.8l1.17-.07c.93,1.81,2.07,3.53,4.43,2.63,1.16-.44,3-1.22,1.32-3.14l3.08-.54c-.07,2.54.32,5.21-1.91,7.17l-.23-.22c0-2.39-1.85-1.92-3.23-1.85C54.16,219.92,52.76,218.51,52.4,215.8Z"/><path class="cls-6" d="M61.3,226.67c-1-3.28-3.88-1.18-5.77-1.91,0-.35.11-.7.16-1,1.59.47,2.91-.54,4.37-.8l7.41.13C64.27,224.14,63.66,226.54,61.3,226.67Z"/><path class="cls-14" d="M74.49,218.6c-.8,1.46-3.3,1.48-3.19,3.73-3.09.86-1.73-3.25-3.87-3.46,1.59,0,3.22.28,4.6-.92C73.1,217,74.05,217,74.49,218.6Z"/><path class="cls-14" d="M60.06,222.91c-1.46.26-2.78,1.27-4.37.8-1.07-.67-2.65-.93-2.31-3.62,2.13,2.9,4.54,1.86,6.88,1.54l.23.22C60.35,222.21,60.2,222.56,60.06,222.91Z"/><path class="cls-3" d="M148.18,235.24c-1.29,3.78-2.37.45-4.23.57,1.93-2.09,3.05-.21,4.24-.56Z"/><path class="cls-14" d="M274,182.34c.08-1.64.26-3.28.22-4.92-.06-2.56.76-4.11,3.66-3.9,2.59.18,4.44.86,4.23,4-.15,2.28,0,4.59.08,6.88-.14,4.83-.43,9.66-.37,14.48,0,3.12-1.53,3.49-4.07,3.44s-4.09-.39-3.95-3.54C274.09,193.34,274,187.84,274,182.34Z"/><path class="cls-13" d="M283.82,197.11c7.56,4,8.54,12.77,2,18.22l-.7.52c-.59-.5-1.18-1-1.78-1.49Q283.6,205.74,283.82,197.11Z"/><path class="cls-14" d="M282.37,213.66c-2.66,2.18-5.5,2.18-5.56,4.85s2.24,3.63,4.74,4.87c-2.38,1.18-4.2-.67-6,0a1.69,1.69,0,0,1-1.22-.49c.4-3.89.71-7.75-.11-11.65-.14-.66,1.7-.89,1.87-.15C276.74,213.94,279.11,213.53,282.37,213.66Z"/><path class="cls-7" d="M283.38,214.36c.6.49,1.19,1,1.78,1.49a7.8,7.8,0,0,1-1.92,7.61C282.65,220.41,283.19,217.39,283.38,214.36Z"/><path class="cls-11" d="M331,174.32l-2.67,2.1a8.06,8.06,0,0,1-1.06-4.71c.12-1.88-1.34-3.8-2.5-3.5-2.52.65-3.29-1.7-5.06-2l-.29-1.1c2-1.1,3.47-2.49,3.22-5-.17-1.73-.53-3.63-2.6-3.56s-2.12,2.1-2.39,3.68c-.35,2,1.27,3.28,1.83,4.94-1.82.09-3.26.56-2.91,2.86-4.5-2.8-5.28-9.17-1.77-14.52.52-.8,1-1.62,1.51-2.44-4.62-1.12-1.55-5.49-3.3-7.83,1.1-1.87,3.16-1.8,4.88-2.42a19,19,0,0,1,9.6,1.84,80.71,80.71,0,0,0,6.33,26Z"/><path class="cls-14" d="M333.8,168.58a80.71,80.71,0,0,1-6.33-26c4.19-1.15,6.34.83,8,4.56,2.15,4.94,3.57,9.94,3.15,15.34C338.35,165.53,337.83,168.47,333.8,168.58Z"/><path class="cls-14" d="M351.19,174.5c7.59.07,14.56,1.21,17,10-6.39-.65-12.79-1.21-19.17-2-2.8-.33-5.52-1.07-6.75-4.11C345.52,177.7,347.61,174.41,351.19,174.5Z"/><path class="cls-4" d="M317.87,140.76c-1.72.62-3.78.55-4.87,2.43l-1.75.73c-2.06-.52-3,1.26-4.38,2.12-.58-3.07-3.63-2.95-5.9-4,1-1.75,3.78-.62,3.72-3l13.17-1C317.86,139,317.86,139.87,317.87,140.76Z"/><path class="cls-4" d="M305,130.9c1.39-2.23,2.77-4.47,5.09-5.9a22.3,22.3,0,0,1,2.45,0c1.07.09,2.57-.49,3,1s-1,1.85-2.09,2.12a2.69,2.69,0,0,0-2.35,2.72Z"/><path class="cls-14" d="M317.86,138.09l-13.16,1h-2.84l-1-.34c0-.79.08-1.53.94-1.89l11.13-.86C314.58,136.65,317.34,134.76,317.86,138.09Z"/><path class="cls-4" d="M312.93,136l-11.13.86a5.19,5.19,0,0,1,2.1-4.15c2.9,2.6,6.16-.54,9.15.56Z"/><path class="cls-14" d="M313.05,133.25c-3-1.1-6.25,2-9.15-.56A1.79,1.79,0,0,1,305,130.9l6.07-.15a11,11,0,0,0,2,0c1.28-.25,3.11-1,3.3.79C316.63,133.83,314.23,132.72,313.05,133.25Z"/><path class="cls-8" d="M106.13,246.45c1.56-1.45,3.14-2.88,4.66-4.38,1.08-1.06,2-1.56,3.29-.19,1.06,1.16,1,2.08.18,3.46-1.85,2.91-5.4,2.53-7.75,4.37A4.36,4.36,0,0,1,106.13,246.45Z"/><path class="cls-5" d="M105.23,274.38c3,5.09,3,5.09-3.64,7.15C100.56,278,103.72,276.61,105.23,274.38Z"/><path class="cls-14" d="M392.37,226.37c1.24-2,4,1.52,5-1.34,2.84,2.25,2.65-1.52,4.09-2.05l1.85.63q-1,2.47-1.9,4.95l0,0-4.08.93C394.76,229.86,393.69,227.93,392.37,226.37Z"/><path class="cls-5" d="M397.21,295.45c-.72-.13-1.58-.12-1.49-1.22,0-.11.2-.3.31-.31,1.11,0,1.06.81,1.17,1.54Z"/><path class="cls-5" d="M385.35,230.27a2.28,2.28,0,0,1,2-1.25A1.79,1.79,0,0,1,385.35,230.27Z"/><path class="cls-11" d="M374.84,199.07c-3.19-.24-3.17-3.13-4.28-5.19-1,.58-1.07,2.37-2.69,2.07,1.38-3.51,1.15-7.2,1.17-10.86l3.06.17A20.5,20.5,0,0,0,374.84,199.07Z"/><path class="cls-11" d="M356.89,195.77c-1.51,1.53-3.22,1-5-.09l4.95.08Z"/><path class="cls-11" d="M367.89,195.94a2,2,0,0,1-1.09,2A2.29,2.29,0,0,1,367.89,195.94Z"/><path class="cls-11" d="M356.88,195.76,358,195l.25.39-1.32.36Z"/><path class="cls-11" d="M360.55,192.52l.13.35-.53.1c0-.13,0-.28.09-.37S360.44,192.54,360.55,192.52Z"/><path class="cls-11" d="M364.82,199.85l-1,1Z"/><path class="cls-11" d="M363.8,200.87l-1,1Z"/><path class="cls-15" d="M304.57,212.88a2,2,0,0,1,2-.95A2,2,0,0,1,304.57,212.88Z"/><path class="cls-12" d="M325.53,216.24l.73,1.07c-1.2.29-.47-.72-.72-1.08Z"/><path class="cls-12" d="M325.54,216.23l-1.3-.49,1.28-.48h0c0,.32,0,.65,0,1Z"/><path class="cls-12" d="M331.39,224.33l.25-.42c-.08.15-.16.29-.23.44Z"/><path class="cls-8" d="M311.25,143.92l1.75-.73c1.74,2.33-1.33,6.7,3.29,7.82-.5.82-1,1.64-1.51,2.44-3.51,5.35-2.73,11.72,1.77,14.52l-.16,0c0,2.08,1.38,2.19,2.92,2.14,1.77,2.63,1.05,3.84-2.1,4s-4.62,1.48-2.93,4.7l-1.9,0c-4.27-2.68-6.33-7.11-8.87-11.17-.54-5,1.81-9.34,3.5-13.81,1.69,0,2.54,3.09,4.67,1.3,1.86-1.58,1.09-7.48-1.17-9.34C310.75,145.18,311,144.55,311.25,143.92Z"/><path class="cls-3" d="M301.86,139.07h2.84c.05,2.38-2.68,1.25-3.73,3,2.27,1,5.32.9,5.9,4-1.53,2.89-2.17,6.21-4.28,8.81l-6-.1c0-5.29,1.71-10.16,3.61-15Z"/><path class="cls-4" d="M296.63,154.75l6,.1c1.36,6.06-3.48,5.79-7,6.86C293.88,159.08,296.62,157.12,296.63,154.75Z"/><path class="cls-11" d="M71.66,209c-4.24-1.46-.37-2.69.28-3.55,6.64-8.87,6.78-18.77.24-27.34-2.59-3.39-6.19-5.29-10-6.92-2.17-.93-3.13-.17-3,2.13-2.1,2-.72,4.62-1.06,6.93-.25,1.72-.33,3.67-2.48,3.38-3-.42-5.76.85-8.65,1,2.26-3.11,1.58-6.48,1-9.89-.31-1.64-1-2.63-2.6-1.52-2.89,2-7.35,3.86-6.75,7.65.45,2.79,4.57,4,8,3.59a1.75,1.75,0,0,1,.48.11c.48,2.51-2,4.49-1.24,7.06-.58,2.65,2.11,4.4,1.91,6.94l-1.17,1c-3.21-.74-4.63,3.06-7.57,3l2.79-4.24c1.67-1.91,1.77-3.91-.05-5.67-1.56-1.5-3.55-2.66-5.77-2-1.9.56-1.25,2.33-1,3.76-.43,3.56.69,6.4,3.85,8.29-1,1-2.3.63-3.48.79L33.87,202a3.56,3.56,0,0,0-1.08-2.72,2.8,2.8,0,0,0-.76-2.52c.43-4-1-8,.27-12.12,3.17-9.94,10.1-15.19,20-17.09l4-.09,5,.46,1,.42,6.78,2.8,4,3.91,4.61,6c.14,2.54,1.27,4.75,2.3,7-.35,3-.71,6-1.06,9C77.58,201.74,75.64,206,71.66,209ZM56.19,170.51c-1.3-.66-2.62-1.38-4-.07Z"/><path class="cls-1" d="M314.28,178.8c-1.69-3.22-.19-4.58,2.93-4.7s3.87-1.34,2.1-4c0-.63.05-1.26.08-1.9l.3-2.06c1.77.34,2.54,2.69,5.06,2,1.16-.3,2.62,1.62,2.5,3.5a8.06,8.06,0,0,0,1.06,4.71c-1.84,2.37-4.55,2.88-7.23,3.45-.15-.69.42-1.87-.79-1.81-.43,0-.8,1.22-1.2,1.88l-3.91-.1Z"/><path class="cls-14" d="M314.28,178.8l.9,1c-1.63,1.6-2.61,1.41-2.8-1Z"/><path class="cls-8" d="M319.09,179.94c.4-.66.77-1.86,1.2-1.88,1.21-.06.64,1.12.79,1.81l-1.08.53Z"/><path class="cls-1" d="M73.22,127c5.49,4.09,11.88,3.17,18.09,3.21,11.74,14.68,9.66,38.46-4.38,50.19L85,176.25a23.15,23.15,0,0,0-4.53-6.35c-2.27-3.52-6-5.34-9.14-7.81.92-3.13-.84-5-3.1-6.65a23.44,23.44,0,0,0,1.58-5.08C70.83,142.55,72.06,134.76,73.22,127Z"/><path class="cls-6" d="M694.24,292.12c-12.47-.08-25-.22-37.43-.21-3.94,0-3.55-2.62-3.51-5.14q.42-25.71.85-51.43c0-2,.6-4-.93-5.74.07-.35.13-.71.2-1.06,1.25.23,2.8,1.61,2.92-1.27.14-3.76-2.12-4.56-7.84-2.6a5.49,5.49,0,0,1-5-2.17c2.13-3.09,4.92.55,7.22-.71l3.85-.06c1.19.74,3-.28,3.89,1.3,0,3.9-2.75,7.31-2.9,10.84-.73,17.78-.77,35.58-1.13,53.37,0,2.52.73,3.67,3.38,3.6,3.49-.08,7-.06,10.47.2s4.87-1.13,5.19-4.43a117.33,117.33,0,0,1,1.7-13.25c2.57-12.12,4.63-24.32,6.08-36.61.28-2.31.37-4.1,3.44-2.86,1.09.44,2.51.67,2.16-1.37-.58-3.42,2-5.85,2.7-8.85a21.89,21.89,0,0,1,8.83.1c.06,1.61.38,3.25-.55,4.76-.36.59-1.34,1.29-.06,1.85a4,4,0,0,0,1.93.09c1.17-.14.92-.93.86-1.79-.12-1.61,0-3.24-.06-4.87l1.64-.45,2,.64,0,.14c1.22,4.24-.6,8.33-.59,12.51l-.42,3.9q-3.23,18.66-6.45,37.3C695.82,282.6,695,287.36,694.24,292.12Z"/><path class="cls-16" d="M711.77,225.8c0,1.65,2,3.93,0,4.7-2.2.89-1.78-.65-.92-2A11.54,11.54,0,0,0,711.77,225.8Z"/><path class="cls-4" d="M460.78,278.58q-1.21,6.93-2.44,13.86a20.55,20.55,0,0,1-10.65.63,4.54,4.54,0,0,1-3.38-3.82c-.35-3.27-1.23-6.5-.86-9.85a3.32,3.32,0,0,0-1.83-3.74c1.79-3.33,1.55-6.86,1-10.41a4.19,4.19,0,0,0,0-5.07c.39-3.36.91-6.72-.55-10,2-1.4,1.52-2.89,1.17-5.15-.7-4.52-.1-9.24,0-13.88a152.15,152.15,0,0,1,7.29-28.74c1.38-4.24,1.92-9.08,4.37-12.56,2.85-4,1.79-6.06-.87-9.29-2.93-3.55-8.17-4.58-9.75-9.39.62-2.32-1.83-8,4.54-4,1,.62,2-.78,2.9-1.45,3-2.17,4.7-5.35,6.79-8.25,4-2,1.73-5.28,1.54-8.13-.08-1.3-2.72-2.89.43-3.82l4.06,4.41c2.67,5.28,5.84,10.2,10.49,14a17.72,17.72,0,0,0,6.14,6.61,9.66,9.66,0,0,0,2.06,4.85,13.77,13.77,0,0,1,.93,1.73c2.91,8.12-.55,15.2-3.55,22.42-3.16,7.58-8.17,14.51-8.4,23.15-1-.44-1.8-1.34-2.81.35a35.19,35.19,0,0,0-4.83,24.58,16.59,16.59,0,0,1,.08,5.4c-.7,4.55-1.28,9.11-1.91,13.67Z"/><path class="cls-2" d="M458.53,157.48c-2.09,2.9-3.83,6.08-6.79,8.25-.9.67-1.91,2.07-2.9,1.45-6.37-4-3.92,1.69-4.54,4l-4.41,15.2c-3.5,6.93-7.56,13.5-7.68,21.8a33.83,33.83,0,0,1-4.76,16.33c-2.41-.33-4.5,2.29-7,.75a1.28,1.28,0,0,0,.23-.43c0-.13,0-.41-.11-.41-5.07-.64-3-4.31-2.83-7,.12-1.44,1.07-2.86-1.51-1.92-2.56-.5-3.67-1.44-1.4-3.82s4.59-5.14,6.88-7.73c-.45-8.2,4.35-15.16,5.51-23l.2-.47-.28.38c-3,0-3.87,3.79-7,4.17l.14-8.18c.12-.34.25-.68.37-1,9.83.13,11.83-1.94,9.7-10.06.53-3.67-2.13-5.63-4.27-7.84-3.88-4-8-7.85-7.21-14.29.19-1.38-.72-2.07-2.15-1.91l-5.79-.09c-5.9-3.28-7.39-9.47-9.92-15,5.52.35,10.3-1.08,14.05-5.45.93-1.09,2.94-2.13,3.69-.2,2.25,5.78,3,2,4.15-.45a8.13,8.13,0,0,1,1.19-1.52q1.58,1.86,3.17,3.71c1.25,2.37-.84,5.52,1.77,7.57l.15,2.88c0,1.62-1.33,2.63-1.89,4-2.19,5.24-2.43,10.36,1.21,15.78.08-4.71-.07-8.78.28-12.81.42-5,3.32-7.34,8.25-7.28A21.66,21.66,0,0,1,458.53,157.48Z"/><path class="cls-2" d="M481.19,170.54a17.72,17.72,0,0,1-6.14-6.61c2.15-2,2.17-4.7,2.48-7.26,1.3-10.57,3.51-21.48,10.08-29.5,12.07-14.73,31-18.78,46-1.31a45.18,45.18,0,0,1,11.2,26.22c.23,2.73,2.23,4.89.38,8.21-1,1.81,1.59,4.79,4.36,5.84-.37.39-.74.77-1.12,1.15-2.9.53-5.63,2.15-8.73,1.41,1.07-10.92-.17-21.5-5-31.42-3.92-8-9.31-14.38-18.78-16.18-6.88-1.31-12.13,2-17.52,5.26-1.75.37-2.19,1.7-2.41,3.21a4.31,4.31,0,0,0-3.3,3.48c-.83.45-1.54,1-1.52,2.06a19.39,19.39,0,0,0-4.3,8.86,33.81,33.81,0,0,0-3.36,14.79c-1.49,2.5-1,5.29-1.18,8C481.93,168,481.56,169.27,481.19,170.54Z"/><path class="cls-2" d="M464.56,149.94l-4.06-4.41c-2-3.7-5.43-6-8.27-8.84,7.53,2.09,12.75-3,18.65-6,.74-.37,1.39-.91,2.12-1.3,1.71-.92,3.94-1.32,5.13-.07,1.5,1.57-.8,3-1.66,4.06-3,3.88-6.48,7.43-9.66,11.2C465.53,146.09,464.37,147.76,464.56,149.94Z"/><path class="cls-5" d="M452.23,136.69c2.84,2.87,6.31,5.14,8.27,8.84-3.15.93-.51,2.52-.43,3.82.19,2.85,2.43,6.08-1.54,8.13A21.66,21.66,0,0,0,437,132.89c-4.93-.06-7.83,2.31-8.25,7.28-.35,4-.2,8.1-.28,12.81-3.64-5.42-3.4-10.54-1.21-15.78.56-1.35,1.87-2.36,1.89-4C437.74,128.31,445,132.46,452.23,136.69Z"/><path class="cls-1" d="M539.7,168.69c3.1.74,5.83-.88,8.73-1.41,3,4.13,4.09,9.22,6.8,13.57,6.12,9.84,19,12.58,29.28,8.51,8.93-3.54,18.27-5.75,27.5-8.3q0,14.46,0,28.91c-.12.4-.25.79-.37,1.19-2.9.34-5.69,1-6.15,4.5-.49,3.76,2.11,5.16,5,6.2-.13,3.82-.18,7.64-.43,11.45-.46,7.08.58,14.24-1.06,21.27-11.4-4.33-23-4.16-34.57-1.08a7.34,7.34,0,0,1-5.14,0c-9.91-3.91-20.29-3.27-30.39-1.62-8.67,1.42-13.9,7.91-17.4,15.71-10.73-4.42-20.89-1.72-31,2.32-1.85.74-1.87,2-2.14,3.44-3.24-8-5.67-16.46-10.43-23.65-5.59-8.42-8.57-17-5.76-27,.23-8.64,5.24-15.57,8.4-23.15,3-7.22,6.46-14.3,3.55-22.42a13.77,13.77,0,0,0-.93-1.73l8.14-1.27c3,2.19,3.68,7.34,8.72,7.07l.05,0c.16,1.15,1.21,1.1,1.95,1.47,9.3,1.88,16.69-2.88,18.47-11.88a3.57,3.57,0,0,0,4.77-1.32Z"/><path class="cls-1" d="M612.82,133.09l0,1a4.82,4.82,0,0,1-.31-.7C612.48,133.31,612.7,133.19,612.82,133.09Z"/><path class="cls-7" d="M622.81,193.77c-.07,3.47-.3,7-.13,10.42.15,3.13-1.12,4-4.08,3.88-2.74-.08-3.82-.88-3.71-3.75.28-6.95.36-13.91.36-20.87,0-2.9,1-4.2,4.07-4.13,3.28.07,3.82,1.82,3.69,4.51C622.85,187.14,622.87,190.45,622.81,193.77Z"/><path class="cls-7" d="M619.12,176.11c-2.61-.79-4.69-2.33-4.53-5.13a4.75,4.75,0,0,1,9.49.42C623.93,174.16,621.83,175.59,619.12,176.11Z"/><path class="cls-6" d="M611.66,211.16c.12-.4.25-.79.37-1.19,2.12.07,4.24.15,6.36.2,7.19.17,7.19.17,7.46-7l6.82,4c-.06,1.18-.11,2.35-.17,3.52-1.85,2.3-4.56,1.14-6.84,1.68C621,211.6,616.2,213.06,611.66,211.16Z"/><path class="cls-7" d="M632.67,207.14l-6.82-4c0-.58.08-1.15.13-1.73,2-1.38,3.29-3.77,6-4l-.07,0c-.18.77.39,1,.92,1.27Z"/><path class="cls-5" d="M363.87,67.74c.14,1.42-.57,2-1.93,2A3,3,0,0,1,363.87,67.74Z"/><path class="cls-2" d="M260.28,105.66l-1.84.16A1.08,1.08,0,0,1,260.28,105.66Z"/><path class="cls-2" d="M232.28,121.71l-1.12,2.11C231.1,122.88,231.21,122,232.28,121.71Z"/><path class="cls-11" d="M185.9,119.14c-2.17-1.09-6.41,1.51-6.47-2.26-.07-4.07,4.11-1.91,6.31-2,2.51-.07,7.07-1.44,7.09,2C192.86,120.67,188.32,118.21,185.9,119.14Z"/><path class="cls-10" d="M658.19,189.48c-.1,2.63-.17,5.27-.32,7.9-.07,1.23.36,3.08-1.48,3.11s-1.41-1.83-1.47-3.06a11.08,11.08,0,0,0-.41-3.5,27.27,27.27,0,0,1-2.72,9.8c-.3,0-.6,0-.9,0-3,.33-6.76-1.67-8.71,1.62-2.31,3.91-5,3.35-8.29,2,0-2.31.05-4.62.08-6.93,1.94,1.26,4.14.93,6.27,1.07,2.57.15,4.76-.45,5.47-3.17S646,193,643,191.68s-5.55-3-8.77-3.26l.09-12h.85c.35,4.74,3.16,7,10,8.17C648.92,187.85,654.1,187.22,658.19,189.48Z"/><path class="cls-16" d="M635.2,176.43h-.85c.37-4.66-.89-9.45,1.11-14,1.07,3.24,3.7,3.19,6.42,3.12,2.5-.06,5,.07,7.49.11-.16,1-.33,2-.49,3l-1.77,3.94C642.92,173.22,638.18,172.06,635.2,176.43Z"/><path class="cls-14" d="M646.38,175.7c.24-1,.48-2,.73-3.06l1.77-3.94c1.74.14,3.72.68,3.18,2.69C651.38,174,649.52,175.91,646.38,175.7Z"/><path class="cls-13" d="M689.51,223.67c-.74,3-3.28,5.43-2.7,8.85.35,2-1.07,1.81-2.16,1.37-3.07-1.24-3.16.55-3.44,2.86-1.45,12.29-3.51,24.49-6.08,36.61a117.33,117.33,0,0,0-1.7,13.25c-.32,3.3-1.82,4.68-5.19,4.43s-7-.28-10.47-.2c-2.65.07-3.43-1.08-3.38-3.6.36-17.79.4-35.59,1.13-53.37.15-3.53,2.89-6.94,2.9-10.84l10.12.21c0,3.95-3,2.48-5.08,2.74-.94.12-2.08-.25-2.61.87a1.48,1.48,0,0,0,.17,1.32,2,2,0,0,0,2.7.37c2.8-2.51,4.66-1,6.48,2l.12-7.19,12.38-1.1C684.81,223.49,687.22,223.29,689.51,223.67Zm-28,6.59a3.19,3.19,0,0,0-1-.18c-.5.1-.52.38-.06.62a.61.61,0,0,0,.47.06A3.1,3.1,0,0,0,661.48,230.26Zm3.84.45.38-.18c-.11-.09-.21-.24-.33-.26s-.25.11-.38.18Z"/><path class="cls-13" d="M700.46,223.81c0,1.63-.06,3.26.06,4.87.06.86.31,1.65-.86,1.79a4,4,0,0,1-1.93-.09c-1.28-.56-.3-1.26.06-1.85.93-1.51.61-3.15.55-4.76Z"/><path class="cls-6" d="M427.2,122.77q-1.59-1.84-3.17-3.71c2.67-1.56.54-4.13,1.29-6.09C429.27,115.6,426.37,119.54,427.2,122.77Z"/><path class="cls-3" d="M13.76,198.05c9.76-.5,15.68-7.58,14.84-17.75.67-.2,1.38-.6,1-1.29-.2-.41-1.08-.5-1.65-.73-1.56-3.68-4.66-5.94-7.65-8.3,1.26-1.6,3.45-2.4,4-4.61l4.87-2.57c2.71,2.8,2.62,0,3.16-1.57,5.46-3.1,11.45-2.91,17.44-2.82,1,0,2.66.57,2.83-1.1.22-2.12-1.67-1.79-2.83-1.64-5,.62-6-1.73-5.25-6.16,1.23-7.21,2.25-14.47,3.14-21.73.38-3.11,1.75-4.4,4.86-4.25,5.81.29,11.63.43,17.45.63,0,10.57-2.63,20.85-3.54,31.32l-3,.34c-2.47-.52-3,1.22-3.6,3-.63,2,.66,2.62,2.22,3l0,4.93-.81,1.15-5-.46c-1.36-1.15-2.69-1.23-4,.09-9.91,1.9-16.84,7.15-20,17.09-1.31,4.12.16,8.1-.27,12.12a2.09,2.09,0,0,0,.76,2.52A3.56,3.56,0,0,1,33.87,202a15.46,15.46,0,0,0,.68,7.36c-.78,0-1.63-.07-2,.91h0l-7-1c-.68-1.15-1.38-1.15-2.08,0l-1.81-.1c-2.61,1.46-1.92-2.59-3.83-2.3a2.55,2.55,0,0,1-.37-.61c-.2-2.71,1.79-6.72-3.72-6.28ZM59.09,127a13.77,13.77,0,0,1-2.49-.06c-4.82-.93-7,1.06-7.37,5.93-.39,5.12-1.3,10.2-2,15.3-.17,1.31-.45,2.64.92,3.58s13.91.92,15.21,0c1.1-.78,1.14-1.93,1.3-3.08.62-4.27,1.24-8.54,1.92-12.8C68,127.12,68,127.12,59.09,127ZM25.34,198.31c-.94.13-1.48.64-1.38,1.61A2.16,2.16,0,0,0,26.2,202a1.29,1.29,0,0,0,1.37-1.58A2.28,2.28,0,0,0,25.34,198.31Z"/><path class="cls-4" d="M66.5,155.48C67.41,145,70,134.73,70,124.16l1-.35A3.37,3.37,0,0,1,73.22,127c-1.16,7.8-2.39,15.59-3.4,23.4a23.44,23.44,0,0,1-1.58,5.08Z"/><path class="cls-5" d="M24.37,165.37c-.57,2.21-2.76,3-4,4.61l-8.94-1.9Z"/><path class="cls-5" d="M32.4,161.23c-.54,1.56-.45,4.37-3.16,1.57A4.24,4.24,0,0,1,32.4,161.23Z"/><path class="cls-4" d="M464.11,57.57c4.44,2.88,5.33,8.16,8.06,12.21,1.6,2.37-1.42,1.91-2.52,1.74a196,196,0,0,0-25.59-2.35c.05-4,.31-7.91.11-11.85s1.71-4.58,4.86-3.87C454.11,54.59,459.32,55.32,464.11,57.57Z"/><path class="cls-4" d="M476.1,66.73c5.58,2,6.17,2.44,9,6.67-6.37.91-7.76-.11-9.09-6.62Z"/><path class="cls-4" d="M476.05,66.78l-.38-.47.43.42Z"/><path class="cls-7" d="M632.21,186.24c-6.61-5.27-6.52-11.38.25-16.78Q632.34,177.85,632.21,186.24Z"/><path class="cls-1" d="M650.89,203.77c-1.45,2.18-4.1,1.91-6.07,3-1.07.6-2.65,1.3-2.4,2.72s1.83,1.09,3,1.17l1,0c7.34.34,9.72,3.56,8.15,11l-3.85.06c-4-5.57-8.94-9.63-16-10.45a5.06,5.06,0,0,1-.78-3.91c3.24,1.31,6,1.87,8.29-2C644.13,202.1,647.91,204.1,650.89,203.77Z"/><path class="cls-1" d="M634.26,188.42c3.22.26,5.9,2,8.77,3.26s3.39,3.95,2.68,6.72-2.9,3.32-5.47,3.17c-2.13-.14-4.33.19-6.27-1.07Q634.12,194.47,634.26,188.42Z"/><path class="cls-5" d="M634.67,211.34c7.07.82,12,4.88,16,10.45-2.3,1.26-5.09-2.38-7.22.71l-7.27,0c1.31-2.35-1.07-1.63-1.86-2.23,1.55-3.22.22-5.61-3.67-6.71-1.66-.46-3.64.48-5-1.17,2.28-.55,5,.61,6.84-1.69A1.61,1.61,0,0,0,634.67,211.34Z"/><path class="cls-16" d="M635.14,132.46c2.91,2.71,2.88,5.37-.15,8Z"/><path class="cls-16" d="M635,142.45c.64.11,1.41.2,1.4,1s-.79.88-1.43,1Z"/><path class="cls-6" d="M632.85,198.61c-.53-.26-1.1-.5-.92-1.27A1,1,0,0,1,632.85,198.61Z"/><path class="cls-8" d="M561,255.34c9.53-.48,18.43,9,18.63,19.81.24,12.19-7.72,21.42-20.16,22.75,5.18-4.08,9.59-8.22,10.95-14.54a1.53,1.53,0,0,0,.69-2,3.35,3.35,0,0,0-.27-3.36c1-.65,1.95-1.33.68-2.58a6.66,6.66,0,0,0-.29-4,1.47,1.47,0,0,0-.56-2c-1-6.19-5-10.35-9.63-14.09Z"/><path class="cls-8" d="M599.13,255.09a21.75,21.75,0,0,1,19.32,22.61c-.38,10.85-9.25,20.2-19.52,20.59C616.1,284.79,612.83,265.64,599.13,255.09Z"/><path class="cls-8" d="M533.19,293.83c-7.33-4.23-11-12.87-9.47-22.16,1.35-8.1,8.86-16.14,16.5-17.36,5.43-.86,1.52,3.8,3,5.34-3.07,1.28-4.25,4.67-7,6.25-2.78.29-5.74-3.69-8.35.37-3.25,5.07-2.44,7.11,3.42,8.66,1.41.37,2.76,1,4.13,1.45.53,2.18-.84,4.93,2,6.39a22.3,22.3,0,0,1-3.23,3.6c-3.08,2.23-3,4.51-.59,7.09Z"/><path class="cls-6" d="M609.07,254.58c1.64-7,.6-14.19,1.06-21.27.25-3.81.3-7.63.43-11.45l5.55-.12,8.23.51c0,2,0,4,0,6.05l.07-.05c-2.18-.12-4.39.38-6.19-1.66-2.17-2.45-1.48,1.58-2.75,1.4-.23-1.49.61-3.71-2-3.77s-2,2.14-2.08,3.66c-.16,5.62-.3,11.24-.29,16.86,0,10.65-2.11,9.06,9.31,9.59,3.44.16,5-1,4.73-4.37,2.32,2,1.9,4.22.32,6.46l-14.56-.17C610.24,255.77,609.14,255.75,609.07,254.58Z"/><path class="cls-13" d="M622.33,282.3q.09-5.06.2-10.1c-.29-4.52,2.12-2.9,4.27-1.87l0,.36c0,1.29.88,1.57,1.95,1.58l0-.11c-.12,4.45-.23,8.9-.37,13.35-.08,2.73-1.68,4.54-4.21,4.5-2.83,0-1.61-2.65-1.79-4.26C622.3,284.61,622.36,283.45,622.33,282.3Z"/><path class="cls-11" d="M537.79,296.23c5.13-.14,5.12-4.18,6.81-6.59,3.37-4.79,4.59-4.86,7.57.17,3.88,6.55,3.26,7.67-4.66,8C544.52,298,541.5,298.14,537.79,296.23Z"/><path class="cls-11" d="M575.93,296.76c5.33.4,5.66-3.65,7.32-6.26,3.25-5.08,4.69-5.11,7.77.13,3.68,6.24,3.22,7.11-4.1,7.84C583.52,298.81,580.54,298.4,575.93,296.76Z"/><path class="cls-4" d="M610.92,256.25l14.56.17a28.11,28.11,0,0,0-.34,9.55c-1.63.65-4.17-.55-4.73,2.3C616.89,264.55,615.35,259.26,610.92,256.25Z"/><path class="cls-11" d="M594.09,257c2.56,0,10,7.24,9.24,8.51-1.48,2.56-4.59,3.4-7.12,3.66-3.18.34-3.72-2.59-3.45-5.24C593,261.54,592.68,258.89,594.09,257Z"/><path class="cls-11" d="M555.1,255.83c2.11,1.41,3.77,2.42,5.32,3.57,2.2,1.64,3.24,3.4,1.43,6.25-1.33,2.1-3.16,3.45-5.17,3-2.95-.72-3-3.56-2.66-6.14C554.28,260.5,554.65,258.55,555.1,255.83Z"/><path class="cls-6" d="M622.33,282.3c0,1.15,0,2.31.1,3.45.18,1.61-1,4.22,1.79,4.26,2.53,0,4.13-1.77,4.21-4.5.14-4.45.25-8.9.37-13.35l2-.1v.39c-.11,4.77-.45,9.54-.25,14.3.19,4.23-1.14,6.17-5.59,5.41a27.27,27.27,0,0,0-4.43,0C618.26,288.32,619.77,285.21,622.33,282.3Z"/><path class="cls-11" d="M606.51,279.06c-1.16,2.85-.27,7.64-4.28,8.58-1.66.4-4.53-3.26-4.62-6.23-.15-4.73,4-4.47,7.06-5.23C606.9,275.62,606.35,277.48,606.51,279.06Z"/><path class="cls-14" d="M582.47,282.59l.19-11a11.79,11.79,0,0,0,3.14,1.09c2.84.13,3.88,1.86,3.61,4.25-.23,2.08-1.39,3.86-4,3.09-2.42-.72-1.64,2.09-3,2.52Z"/><path class="cls-14" d="M547.8,279.9c-2.72-.33-3.81-2-3.83-3.76a3.75,3.75,0,0,1,4.22-3.85c2.15.08,3,2.15,3,3.92C551.2,278.47,549.16,279.22,547.8,279.9Z"/><path class="cls-8" d="M564.87,286.05c-2.27-2.2-2.48-5-2.52-7.74s2.27-2.6,3.89-2.63c2.13,0,1.34,1.9,1.24,3A13.68,13.68,0,0,1,564.87,286.05Z"/><path class="cls-11" d="M536.13,265.9c2.8-1.58,4-5,7-6.25a14.58,14.58,0,0,1,.52,2.87c-.05,2.1-.31,4.52-2.19,5.54C539.35,269.24,537.61,267.45,536.13,265.9Z"/><path class="cls-8" d="M578.88,261.43c-.5-.64-1-1.26-1.49-1.93-.68-1-2.5-1.73-1.39-3.19s2.83-1.64,4.43-1.61c2.12,0,1.19,1.89,1.4,3a28.08,28.08,0,0,1,.26,2.91Z"/><path class="cls-6" d="M620.41,268.27c.56-2.85,3.1-1.65,4.73-2.31.55,1.46,1.1,2.91,1.66,4.37-2.15-1-4.56-2.65-4.27,1.87C620.3,271.71,621.05,269.61,620.41,268.27Z"/><path class="cls-14" d="M578.88,261.43l3.21-.82c-.25,2.71,1.17,5.41-.18,9.31Z"/><path class="cls-11" d="M537.31,282.77c-2.82-1.46-1.45-4.21-2-6.39C538.91,277.61,539.1,279.88,537.31,282.77Z"/><path class="cls-4" d="M586.25,253.93a2.3,2.3,0,0,1-2.56,1.22c-.15,0-.36-.59-.27-.76C584,253.33,584.93,253.6,586.25,253.93Z"/><path class="cls-4" d="M571.51,275.43c1.27,1.25.36,1.93-.68,2.58C570.59,277,570.53,276.09,571.51,275.43Z"/><path class="cls-4" d="M570.66,269.39a1.47,1.47,0,0,1,.56,2C570,271,569.22,270.51,570.66,269.39Z"/><path class="cls-4" d="M571.1,281.37a1.53,1.53,0,0,1-.69,2C569,282.13,569.8,281.66,571.1,281.37Z"/><path class="cls-4" d="M561,255.3c-.72-.21-1.66-.15-1.61-1.3a.48.48,0,0,1,.34-.31c1.14,0,1.06.92,1.23,1.65Z"/><path class="cls-14" d="M582.42,282.55c-.08,1.09.15,2.29-1,3l0,0c.1-1.08-.09-2.26,1.05-3Z"/><path class="cls-14" d="M581.37,285.53c-.09,1.09.09,2.27-1,3l0,0c.06-1.09-.12-2.28,1-3Z"/><path class="cls-8" d="M535.19,294.84a1.63,1.63,0,0,1-2-1l.3-.36c.8.14,1.59.31,1.78,1.29Z"/><path class="cls-8" d="M535.27,294.75l1.51.62c-.1.11-.2.29-.32.31-.66.11-1.16-.08-1.27-.84Z"/><path class="cls-14" d="M580.34,288.52l-1,1,.05.05,1-1Z"/><path class="cls-14" d="M579.31,289.5c-.06.15-.13.29-.2.43l.25-.38Z"/><path class="cls-13" d="M625.16,250c.22,3.41-1.29,4.53-4.73,4.37-11.42-.53-9.3,1.06-9.31-9.59,0-5.62.13-11.24.29-16.86,0-1.52-.5-3.72,2.08-3.66s1.74,2.28,2,3.77a8.92,8.92,0,0,0,8.95.26l-.07.05c2.6-1.05,1.4-4.16,3.3-6.44,1.42,3.67,5.73,6,1.66,10.19-.42.42,1,1,1.8,1.09q-.12,8.78-.23,17.53l.12.16c-2.81-1.78-3.41-4.88-4.54-7.66a60.5,60.5,0,0,0-2.55-10.23c-.87-2.19-2.12-3.25-4.51-2.44-1.6-.26-2,.76-2.11,2-.28,5.11,1.67,9.08,6.11,11.74Q624.28,247.12,625.16,250Z"/><path class="cls-11" d="M630.86,250.67l3.49,0c7,.05,7.19.39,6.63,7.36a31.93,31.93,0,0,0,0,8.46c.87,4.62-.91,6.22-5.26,5.93-1.66-.11-3.33,0-5,0v-.39c-5.64-7.73-5.58-13.06.22-21.23Z"/><path class="cls-13" d="M638.34,226.69c-3.57,0-3.93-1.55-2.14-4.23l7.26,0a5.49,5.49,0,0,0,5,2.17,3.23,3.23,0,0,1,1,.2l-.12,2.55c-1.83.76-3.39-1-5.19-.53Z"/><path class="cls-14" d="M644.16,226.89c1.8-.47,3.36,1.29,5.19.53,1.35.78,2.51-.66,3.82-.31.08.47.17.95.25,1.43s-.13.71-.2,1.06c-1.65.26-3.15,1.3-4.92.88C646.77,229.45,644.84,228.9,644.16,226.89Z"/><path class="cls-9" d="M442.12,250.2c1.46,3.26.94,6.62.55,10-.51-1.74-1.08-3.45-1.5-5.21-2.09-8.57-12.7-16.71-22.76-15.81,2.27.83,4.29,1.35,3.76,3.85,0,.33,0,.66-.05,1-1.08,12.31-.91,12.44,10.66,8.07,4.81-2.31,5.07,1.4,6.3,4.44,1.5,3.7-.38,4.6-3.32,5.09-3.15,1.07-7.56.09-8.86,4.29-1.36,4.4,2.81,6.27,5.07,8.95a3.05,3.05,0,0,0,.38.32c2.77,4.85-3.09,4.8-4.23,7.43-2.89,1.22-4-1.44-5.83-2.64-7.19-9.17-8.17-9.05-13,1.53-1.58,4.48,2.48,2.52,4,3.49,5.39,1.82,10.56,1.53,15.42-1.65,2,.08,3.24-1.28,4.68-2.36,5.29-3.95,7.53-9.66,9.24-15.7.53,3.55.77,7.08-1,10.41-10.41,15.71-28.45,15.89-39,7.15-8.12-6.73-11.43-15.48-9.17-25.8,2.35-10.73,9.19-17.73,19.92-20s19.68,1.17,26.46,9.91C440.66,248,441.37,249.1,442.12,250.2Zm-31-2.54c-1.17-1.74,1.75-5.5-2.51-6-2.18-.28-10.07,7-9.31,8.3,1.75,3,5.26,4.38,8.33,4.47C411.68,254.5,410.91,250.67,411.13,247.66ZM397.05,266c-.55,3.51-.38,7.12,2,8.18,2,.87,3.72-2.57,5.22-4.41s1.9-3.95.36-5.91a6.45,6.45,0,0,0-6.22-2.28C395.7,262.13,397.53,265,397.05,266Zm23.73-3.94c0-2.62-1.65-3.46-3.94-3.31-2,.13-3.95,1.18-3.56,3.25s1.6,4,4.44,3.79C420.11,265.63,420.74,264.16,420.78,262.1Z"/><path class="cls-9" d="M450.55,202.43a152.15,152.15,0,0,0-7.29,28.74c-1.89.2-3-1-4-2.29q.46-20.37.92-40.74c2.58-.41,5.2-.66,7.73-1.28,2.69-.66,3.49,0,3.23,2.84C450.72,193.92,450.72,198.18,450.55,202.43Z"/><path class="cls-13" d="M440.14,188.14q-.47,20.37-.92,40.74c-4.43-.09-7.45-4-11.77-4.36a33.83,33.83,0,0,0,4.76-16.33c.12-8.3,4.18-14.87,7.68-21.8C440,187,440.06,187.55,440.14,188.14Z"/><path class="cls-13" d="M421.68,204c-2.29,2.59-4.51,5.23-6.88,7.73s-1.16,3.32,1.41,3.82c-.51.61-2.62-.1-1.73,1.48,2.81,5-.4,4.8-3.76,4.67-1.14,0-2.33-.24-3.26.71l-2.11.61a1.44,1.44,0,0,0-2,.63l-1.85-.62c0-2.05.15-4.16-2.44-5.23l-1.19,4.44q-.16-3.9-.34-7.78.12-6,.22-12l0-1.06c.42-1.64.8-3.28.06-4.94l.51-7.88c1.5,7.91.25,15.87.25,23.8,0,5.91,5.86,2,7.46,4.9,1.87-1.43,6.3-1,5.64-3.78-1-4.4,1-8.41.23-12.59a5.18,5.18,0,0,1,2.07-5.25A33,33,0,0,1,421.68,204Z"/><path class="cls-6" d="M407.46,222.37c.93-1,2.12-.75,3.26-.71,3.36.13,6.57.32,3.76-4.67-.89-1.58,1.22-.87,1.73-1.48,2.57-.94,1.62.48,1.5,1.92-.21,2.69-2.24,6.36,2.83,7,.06,0,.14.28.11.41a1.28,1.28,0,0,1-.23.43c-2.12,1-3.4-1.44-5.3-1.31C413.08,221,409.45,225.63,407.46,222.37Z"/><path class="cls-14" d="M407.46,222.37c2,3.26,5.62-1.39,7.66,1.59-3.55,2.6-6.87,2.84-9.77-1Z"/><path class="cls-3" d="M401.41,228.56c.62.09,1.35.09,1.42.94,0,.18-.39.57-.56.54-.84-.1-.82-.82-.89-1.45Z"/><path class="cls-5" d="M472.23,222.69c-2.81,10,.17,18.56,5.76,27,4.76,7.19,7.19,15.65,10.43,23.65l.93,5.7-1.14.63,1.38.39,1.26,1.82c-3-.25-2.21,3-4,4.23-4,2.72-7.51,1.5-11.19-.28l-7.16-10.12c-1.65-3.17-2.85-6.63-5.75-9,.63-4.56,1.21-9.12,1.91-13.67a16.59,16.59,0,0,0-.08-5.4A35.19,35.19,0,0,1,469.42,223C470.43,221.35,471.23,222.25,472.23,222.69Z"/><path class="cls-11" d="M462.76,266.69c2.9,2.37,4.1,5.83,5.75,9l-7.73,2.89Z"/><path class="cls-3" d="M489.59,280l-1.38-.39,1.14-.63Z"/><path class="cls-14" d="M25.65,209.31l7,1c-2.31,1.69-2.55,4.16-2,6.57.34,1.58.14,2.45-1.25,3.1-1.11.09-2.32.39-2.71-1.18a6.5,6.5,0,0,1,.62-.75c2-1.67,1.61-3.81,1.08-5.89a1.61,1.61,0,0,0-2.05-.91c-2.83.71-1.41,3.25-2,4.91a5.86,5.86,0,0,1-.48.84c-.64-.9-2.16-1.19-1.9-2.72,1.77-1.72-.39-3.36-.1-5.05l1.81.1C24.25,210.17,24.94,210.17,25.65,209.31Z"/><path class="cls-5" d="M23.76,217a5.86,5.86,0,0,0,.48-.84c.62-1.66-.8-4.2,2-4.91a1.61,1.61,0,0,1,2.05.91c.53,2.08.88,4.22-1.08,5.89a6.5,6.5,0,0,0-.62.75L23.67,218Z"/><path class="cls-7" d="M5.82,191.13l2.05-.35,3.1,1c1.42,1.83.75,3.91.72,5.92C9.19,196,6.86,194.13,5.82,191.13Z"/><path class="cls-5" d="M13.84,200c5.51-.44,3.52,3.57,3.72,6.28C13.32,206,14.34,202.53,13.84,200Z"/><path class="cls-5" d="M21.76,209.19c-.29,1.69,1.87,3.33.1,5.05-2.56-1.78-4.49-3.9-3.93-7.35C19.84,206.6,19.15,210.65,21.76,209.19Z"/><path class="cls-4" d="M301.86,139.07l-1.62.69.62-1Z"/><path class="cls-7" d="M421.68,204a33,33,0,0,0-7.78-8.3c-.84-1.17-1.51-3-3.21-2.5-1.51.47-.76,2.31-.88,3.56a41.63,41.63,0,0,0-.09,4.47c0,1.89-.35,3.35-2.71,3.1-2.05-.21-4.1-.41-4.05-3.24.21-11.61.43-23.22.57-34.84,0-2.43,1.49-2.52,3.3-2.52,2,0,3.58.24,3.48,2.91-.18,5.14-.19,10.28-.26,15.42,0,.8-.19,1.86.76,2.16,1.23.39,1.4-1.15,2.23-1.57,3-1.09,4.4-4.3,7.18-5.73l-.14,8.18c3.16-.38,4-4.16,7-4.17l.08.09C426,188.8,421.23,195.76,421.68,204Z"/><path class="cls-7" d="M410.87,141.66l5.79.09c-.63,4.36-.59,8.64,2.32,12.28,3.4,4.27,6.83,8.53,11.31,11.76,2.13,8.12.13,10.19-9.7,10.06-2-6.35-5.17-12.19-7.85-18.24A33,33,0,0,1,410.87,141.66Z"/><path class="cls-13" d="M412.74,157.61c2.68,6,5.86,11.89,7.85,18.24-.12.35-.25.69-.37,1-2.78,1.43-4.13,4.64-7.18,5.73-1.84-5.29-.65-10.72-.51-16.05C412.6,163.59,410.32,160.5,412.74,157.61Z"/><path class="cls-3" d="M388.5,228.23a6.51,6.51,0,0,0-.58-.46s-.17.18-.26.27l.78.17Z"/><path class="cls-11" d="M379.76,203.14a41,41,0,0,0,12,1.21C387.58,205.66,383.45,206.6,379.76,203.14Z"/><path class="cls-11" d="M374.83,199.06a2.14,2.14,0,0,1,1,2A2,2,0,0,1,374.83,199.06Z"/><path class="cls-11" d="M377.77,202.11a2.13,2.13,0,0,1,2,1A2,2,0,0,1,377.77,202.11Z"/><path class="cls-11" d="M395.73,202.42l1.95-1,0,1.06Z"/><path class="cls-11" d="M375.79,201.07a2.1,2.1,0,0,1,2,1.05A2.06,2.06,0,0,1,375.79,201.07Z"/><path class="cls-11" d="M391.73,204.35a2.2,2.2,0,0,1,2-1A2,2,0,0,1,391.73,204.35Z"/><path class="cls-6" d="M397.83,222.2l1.19-4.44c2.59,1.07,2.45,3.18,2.44,5.23-1.44.52-1.25,4.29-4.09,2C397.53,224.09,397.68,223.14,397.83,222.2Z"/><path class="cls-9" d="M308.72,222.57l-.34.13-.1-.52c.13,0,.28,0,.37.09S308.7,222.46,308.72,222.57Z"/><path class="cls-5" d="M29.33,219.94c1.39-.65,1.59-1.52,1.25-3.1-.52-2.41-.28-4.88,2-6.57h0c3.37,1.73,3.74,4.6,2.28,7.56-1,1.93.34,1.47,1.1,1.49s2.32.07,1.6-.91c-2-2.76.57-6.93-3-9a15.46,15.46,0,0,1-.68-7.36l1.45,1.42c1.08,2.86,3.53,4.64,5.45,6.83-1,2.52-3.21,5.15.68,7.2.45,3,2.38,1.82,4,1.46l-4-1.48c-1.65-2.11-.17-4.16.13-6.24.9.62,1.69,1.52,3,1.3l3.1,1.9c.4,1.67-1.7,4.61,1.23,4.75,1.79.09-.13-2.91.74-4.34l2.76,1c.36,2.71,1.76,4.12,4.63,4,1.38-.07,3.19-.54,3.23,1.85-2.34.32-4.75,1.36-6.88-1.54-.34,2.69,1.24,2.95,2.31,3.62,0,.35-.11.7-.16,1-6.85-.56-13.8.37-20.53-2.18A42.47,42.47,0,0,1,29.33,219.94Z"/><path class="cls-8" d="M113.5,268.8c-4.44-2.86-4.94-5.13-1.32-9.58-1,3.91,0,6.69,1.56,9.35Z"/><path class="cls-8" d="M115.6,271.67l1.27.43c-.09.12-.25.35-.26.35-.37-.23-.72-.48-1.07-.72Z"/><path class="cls-8" d="M113.74,268.57l.36.62-.6-.39Z"/><path class="cls-8" d="M115.54,271.73l-.41-.54.47.48Z"/><path class="cls-8" d="M77.22,238.18c1.78,4.5,4.73,7,2.67,10.88-1.08,2-2.12,1.94-3,0C75.42,245.88,75.74,242.64,77.22,238.18Z"/><path class="cls-8" d="M80.74,266.69c-1.61-.43-1.83-1.82-2-3.05-.21-1.64-.37-3.95,1.68-4.06,2.26-.11,1.21,2.24,1.25,3.51S82.19,265.77,80.74,266.69Z"/><path class="cls-8" d="M71.76,252.14c.27.13.68.2.78.41s-.14.55-.23.84c-.27-.16-.63-.26-.78-.5S71.67,252.4,71.76,252.14Z"/><path class="cls-4" d="M46.56,199.52l1.17-1c5.13.32,8.16-3.26,11.65-6-1.35-2.19-4.67-1.3-5.4-4,.16-1.11,1-2.21,1.87-1.69,2.94,1.68,4.09-1,5.93-2.07l0,12.83c-1.17,1.74-3,2.09-4.89,2.39-1.43-.33-2.84-.61-3.18,1.46l-4.14,2.51A4.25,4.25,0,0,1,46.56,199.52Z"/><path class="cls-5" d="M61.77,184.75c-1.83,1.05-3,3.75-5.92,2.07-.91-.52-1.71.58-1.87,1.69-3,.35-4.79,3.77-8.16,3.07C45,189,47.54,187,47.06,184.52l-.08.06c2.89-.13,5.61-1.4,8.65-1,2.15.29,2.23-1.66,2.48-3.38.34-2.31-1-4.9,1.06-6.93a5.65,5.65,0,0,1,3.59,2.08Z"/><path class="cls-9" d="M46.56,199.52a4.25,4.25,0,0,0,3,4.42c-.46,2.48-3.86,3.64-3,6.71-.26,1-1.12,1.41-2,1.85-1.27.22-2.06-.68-3-1.3l-.84-.94c-1.92-2.19-4.37-4-5.45-6.83,1.18-.16,2.49.23,3.48-.79l.19-.14C41.93,202.58,43.35,198.78,46.56,199.52Z"/><path class="cls-9" d="M56.86,200c1.87-.3,3.72-.65,4.89-2.39l2,.19c.48,2.34,2.49,3.5,3.93,5.11,1.65,2.69.53,4.13-2.07,5.37s-4.37,1.08-5.57-1.64C59,204.37,56.85,202.69,56.86,200Z"/><path class="cls-14" d="M63.75,197.77l-2-.19,0-12.83c.32-3.13.65-6.25,1-9.38,3.06,1.2,5.44,3,5.52,6.64a7,7,0,0,1-2.62,4.53,3.25,3.25,0,0,0-1.06,4.33,18.52,18.52,0,0,0-.77,7Z"/><path class="cls-6" d="M46.52,210.65c-.84-3.07,2.56-4.23,3-6.71l4.14-2.51c.59.57,1.43,1,1.73,1.74.93,2.16,4.23,4.31,2.34,6.38a7,7,0,0,1-7.82,1.37C49,210.48,47.67,210.72,46.52,210.65Z"/><path class="cls-9" d="M64.6,190.87a3.25,3.25,0,0,1,1.06-4.33A7,7,0,0,0,68.28,182c3.47-1.85,5,.09,5.53,3.12.34,2,1.38,5.07-2.78,4.69-1.53-.9-1.52.6-2,1.3C67.55,190.67,66,192.71,64.6,190.87Z"/><path class="cls-6" d="M69,191.12c.52-.7.51-2.2,2-1.3,1.42,5,.93,9.52-3.35,13.06-1.44-1.61-3.45-2.77-3.93-5.11l.08.08C70.19,199.16,68.81,194.54,69,191.12Z"/><path class="cls-5" d="M59.32,215.22c1.67,1.92-.16,2.7-1.32,3.14-2.36.9-3.5-.82-4.43-2.63Z"/><path class="cls-14" d="M49.64,214.81c-.87,1.43,1,4.43-.74,4.34-2.93-.14-.83-3.08-1.23-4.75Z"/><path class="cls-4" d="M319.46,165.11c-.56-1.66-2.18-2.94-1.83-4.94.27-1.58.36-3.62,2.39-3.68s2.43,1.83,2.6,3.56c.25,2.53-1.25,3.92-3.22,5Z"/><path class="cls-14" d="M319.69,166.17l-.3,2.06-3-.24.16,0c-.35-2.3,1.09-2.77,2.91-2.86l-.06,0C319.5,165.43,319.6,165.8,319.69,166.17Z"/><path class="cls-5" d="M47.06,184.52a1.75,1.75,0,0,0-.48-.11c-3.43.36-7.55-.8-8-3.59-.6-3.79,3.86-5.61,6.75-7.65,1.56-1.11,2.29-.12,2.6,1.52.63,3.41,1.31,6.78-1,9.89Z"/><path class="cls-5" d="M80.48,169.9c-2.57,1.59-4.08,4.67-7.4,5.16l-4-3.91q.18-4.62.37-9.24l1.92.18C74.5,164.56,78.21,166.38,80.48,169.9Z"/><path class="cls-14" d="M45.82,191.58c3.37.7,5.19-2.72,8.16-3.07.73,2.69,4.05,1.8,5.4,4-3.49,2.76-6.52,6.34-11.65,6C47.93,196,45.24,194.23,45.82,191.58Z"/><path class="cls-14" d="M69.42,161.91q-.19,4.62-.37,9.24l-6.78-2.8-.15-1.57c0-1.64,0-3.29,0-4.93.21-.78.43-1.56.64-2.34C65.13,160,67.49,160.35,69.42,161.91Z"/><path class="cls-7" d="M35,194.35c-.24-1.43-.89-3.2,1-3.76,2.22-.66,4.21.5,5.77,2,1.82,1.76,1.72,3.76.05,5.67A25.07,25.07,0,0,1,35,194.35Z"/><path class="cls-6" d="M35,194.35a25.07,25.07,0,0,0,6.83,3.91L39,202.5l-.19.14C35.64,200.75,34.52,197.91,35,194.35Z"/><path class="cls-8" d="M56.19,170.51l-4-.07C53.57,169.13,54.89,169.85,56.19,170.51Z"/><path class="cls-5" d="M52.31,167.56c1.3-1.32,2.63-1.24,4-.09Z"/><path class="cls-5" d="M32.79,199.29a2.09,2.09,0,0,1-.76-2.52A2.8,2.8,0,0,1,32.79,199.29Z"/><path class="cls-5" d="M62.12,166.78l.15,1.57-1-.42Z"/><path class="cls-11" d="M69.42,161.91c-1.93-1.56-4.29-2-6.62-2.4.25-1.23.49-2.46.74-3.69l3-.34,1.74,0c2.26,1.64,4,3.52,3.1,6.65Z"/><path class="cls-5" d="M28,178.28c.57.23,1.45.32,1.65.73.33.69-.38,1.09-1,1.29Z"/><path class="cls-8" d="M435.76,261.59c2.94-.49,4.82-1.39,3.32-5.09-1.23-3-1.49-6.75-6.3-4.44A11.21,11.21,0,0,0,422.17,243c.53-2.5-1.49-3-3.76-3.85,10.06-.9,20.67,7.24,22.76,15.81.42,1.76,1,3.47,1.5,5.21a4.19,4.19,0,0,1,0,5.07c-1.71,6-3.95,11.75-9.24,15.7-1.44,1.08-2.68,2.44-4.68,2.36-.21-.24-.41-.48-.61-.73,1.15-2.63,7-2.58,4.24-7.43C434.44,270.87,438.51,267.09,435.76,261.59Z"/><path class="cls-5" d="M440.14,188.14c-.08-.59-.17-1.17-.25-1.75l4.41-15.2c1.58,4.81,6.82,5.84,9.75,9.39,2.66,3.23,3.72,5.26.87,9.29-2.45,3.48-3,8.32-4.37,12.56.17-4.25.17-8.51.55-12.73.26-2.79-.54-3.5-3.23-2.84C445.34,187.48,442.72,187.73,440.14,188.14Z"/><path class="cls-3" d="M491.39,174.12l-8.14,1.27a9.66,9.66,0,0,1-2.06-4.85c.37-1.27.74-2.54,1.12-3.8l8.1.27C490.78,169.38,492.56,171.54,491.39,174.12Z"/><path class="cls-5" d="M430.29,165.79c-4.48-3.23-7.91-7.49-11.31-11.76-2.91-3.64-3-7.92-2.32-12.28,1.43-.16,2.34.53,2.15,1.91C418,150.1,422.14,153.93,426,158,428.16,160.16,430.82,162.12,430.29,165.79Z"/><path class="cls-7" d="M427.11,180.89l.28-.38-.2.47Z"/><path class="cls-3" d="M539.7,168.69l-14.35.8c.95-7,.21-13.7-3.31-20.09-1.81-3.29-4-4.6-7.54-3.72-1.82-.71-3.57-1.66-5.61-1.57-.84-3.12-3.74-3.07-6.06-3.92l.06-1.85c1.41-.21,3.51.14,3.63-1.66.15-2.23-2.85-.84-3.7-2.31.05-.74.09-1.48.13-2.21,1.37-.15,3.53.78,3.77-1.16.26-2.2-2.1-1.36-3.35-1.78-1.86-.62-4.49.1-5-2.87,5.39-3.25,10.64-6.57,17.52-5.26,9.47,1.8,14.86,8.17,18.78,16.18C539.53,147.19,540.77,157.77,539.7,168.69Z"/><path class="cls-3" d="M483.49,158.75A33.81,33.81,0,0,1,486.85,144l2.11.88c2.62.6,6-1,7.51,2.71-3,2.89-4.1,6.87-5.83,10.49-2.16.62-5.46-1.86-6.3,2.44-.19.94-.59,0-.68-.28A10.06,10.06,0,0,1,483.49,158.75Z"/><path class="cls-4" d="M483.49,158.75a10.06,10.06,0,0,0,.17,1.45c.09.31.49,1.22.68.28.84-4.3,4.14-1.82,6.3-2.44q-.12,4.49-.23,9l-8.1-.27C482.5,164,482,161.25,483.49,158.75Z"/><path class="cls-5" d="M489,144.84l-2.11-.88a19.39,19.39,0,0,1,4.3-8.86l11.74,3.24-.06,1.85c-4.12-.43-8.21-2-12.6-.62.93,2.35,4.08.8,4.47,2.79C493.14,144.46,489.76,141,489,144.84Z"/><path class="cls-14" d="M502.89,138.34l-11.74-3.24c0-1.08.69-1.61,1.52-2.06,3.28,1.24,6.74,1.12,10.15,1.33.85,1.47,3.85.08,3.7,2.31C506.4,138.48,504.3,138.13,502.89,138.34Z"/><path class="cls-14" d="M498.38,126.35c.5,3,3.13,2.25,5,2.87,1.25.42,3.61-.42,3.35,1.78-.24,1.94-2.4,1-3.77,1.16-2.15-1.34-5.31,0-7-2.6C496.19,128.05,496.63,126.72,498.38,126.35Z"/><path class="cls-4" d="M496,129.56c1.67,2.63,4.83,1.26,7,2.6,0,.73-.08,1.47-.13,2.21-3.41-.21-6.87-.09-10.15-1.33A4.31,4.31,0,0,1,496,129.56Z"/><path class="cls-11" d="M508.89,144.11c2-.09,3.79.86,5.61,1.57.58,8.73,3.3,16.94,6.08,25.13-1.78,9-9.17,13.76-18.47,11.88-.12-1.2-.87-1.55-1.95-1.47l-.05,0A8.33,8.33,0,0,0,499,179c-6.29-6.57-6.4-14.25-4.59-22.57.8-3.67,4-6,4.32-9.78A18.88,18.88,0,0,1,508.89,144.11ZM502.45,154c-6,4.94-6.3,13.93-.07,17.69-3-6.12-2.45-11.78.43-17.33l.34-.68Zm5.38,5.34a16.39,16.39,0,0,0-2.29,3.44c-1.46,3-.85,6,3.19,3.53C511.17,164.86,510.38,161.75,507.83,159.38Z"/><path class="cls-4" d="M634.33,220.23c.18,2.82-2.38,2.82-3.13,1.81-2-2.61-3.92,0-5.74-.58a3.74,3.74,0,0,0-4.15-2.1c-2.78.79-3.76-.27-4.28-2.74-.09-.45-1.13-.54-1.83,0,.61,1.6,1.77,3.18.91,5.08l-5.55.12c-2.94-1-5.54-2.44-5-6.2.46-3.55,3.25-4.16,6.15-4.5,4.54,1.9,9.36.44,14,1.18,1.36,1.66,3.34.72,5,1.18C634.55,214.62,635.88,217,634.33,220.23Z"/><path class="cls-14" d="M520.58,170.81c-2.78-8.19-5.5-16.4-6.08-25.13,3.57-.88,5.73.43,7.54,3.72,3.52,6.39,4.26,13.06,3.31,20.09A3.57,3.57,0,0,1,520.58,170.81Z"/><path class="cls-8" d="M498.77,146.64c-.33,3.73-3.52,6.11-4.32,9.78-1.81,8.32-1.7,16,4.59,22.57a8.33,8.33,0,0,1,1.07,2.2c-5,.27-5.68-4.88-8.72-7.07,1.17-2.58-.61-4.74-1-7.11q.1-4.48.23-9c1.73-3.62,2.79-7.6,5.83-10.49Z"/><path class="cls-8" d="M500.16,181.22c1.08-.08,1.83.27,1.95,1.47C501.37,182.32,500.32,182.37,500.16,181.22Z"/><path class="cls-6" d="M668.54,223.24l1.78.1c0,2.15-.07,4.29-.12,7.19-1.82-3-3.68-4.5-6.48-2a2,2,0,0,1-2.7-.37,1.48,1.48,0,0,1-.17-1.32c.53-1.12,1.67-.75,2.61-.87C665.5,225.72,668.49,227.19,668.54,223.24Z"/><path class="cls-6" d="M661.48,230.26a3.1,3.1,0,0,1-.56.5.61.61,0,0,1-.47-.06c-.46-.24-.44-.52.06-.62A3.19,3.19,0,0,1,661.48,230.26Z"/><path class="cls-6" d="M665.32,230.71l-.33-.26c.13-.07.26-.19.38-.18s.22.17.33.26Z"/><path class="cls-11" d="M59.09,127c8.92.12,8.9.12,7.5,8.88-.68,4.26-1.3,8.53-1.92,12.8-.16,1.15-.2,2.3-1.3,3.08-1.3.91-13.87.92-15.21,0s-1.09-2.27-.92-3.58c.69-5.1,1.6-10.18,2-15.3.38-4.87,2.55-6.86,7.37-5.93A13.77,13.77,0,0,0,59.09,127Z"/><path class="cls-14" d="M34.55,209.37c3.57,2.12,1,6.29,3,9,.72,1-1,.91-1.6.91s-2.05.44-1.1-1.49c1.46-3,1.09-5.83-2.28-7.56C32.92,209.3,33.77,209.41,34.55,209.37Z"/><path class="cls-5" d="M63.54,155.82c-.25,1.23-.49,2.46-.74,3.69-.21.78-.43,1.56-.64,2.34-1.56-.4-2.85-1-2.22-3C60.5,157,61.07,155.3,63.54,155.82Z"/><path class="cls-5" d="M25.34,198.31a2.28,2.28,0,0,1,2.23,2.12A1.29,1.29,0,0,1,26.2,202,2.16,2.16,0,0,1,24,199.92C23.86,199,24.4,198.44,25.34,198.31Z"/><path class="cls-5" d="M25.65,209.31c-.71.86-1.4.86-2.08,0C24.27,208.16,25,208.16,25.65,209.31Z"/><path class="cls-8" d="M631,250.83c-5.8,8.17-5.86,13.5-.22,21.23l-2,.1,0,.11a2.21,2.21,0,0,0-1.95-1.58l0-.36c-.56-1.46-1.11-2.91-1.66-4.37a28.06,28.06,0,0,1,.34-9.54c1.58-2.24,2-4.41-.32-6.46q-.88-2.84-1.78-5.69l.77-.85,2.28-.25C627.57,246,628.17,249.05,631,250.83Z"/><path class="cls-14" d="M616.11,221.74c.86-1.9-.3-3.48-.91-5.08.7-.58,1.74-.49,1.83,0,.52,2.47,1.5,3.53,4.28,2.74a3.74,3.74,0,0,1,4.15,2.1l-1.12.79Z"/><path class="cls-6" d="M626.82,270.69a2.21,2.21,0,0,1,1.95,1.58C627.7,272.26,626.86,272,626.82,270.69Z"/><path class="cls-14" d="M624.15,243.42l-.77.85c-4.44-2.66-6.39-6.63-6.11-11.74.07-1.27.51-2.29,2.11-2C622.71,234.16,623.52,238.76,624.15,243.42Z"/><path class="cls-5" d="M624.15,243.42c-.63-4.66-1.44-9.26-4.77-12.92,2.39-.81,3.64.25,4.51,2.44a60.5,60.5,0,0,1,2.55,10.23Z"/><path class="cls-6" d="M649.47,224.87c1.16.86,4.95-2.63,3.7,2.23-1.31-.34-2.47,1.1-3.82.32Z"/><path class="cls-6" d="M411.13,247.66c-.22,3,.55,6.84-3.49,6.73-3.07-.09-6.58-1.44-8.33-4.47-.76-1.31,7.13-8.58,9.31-8.3C412.88,242.16,410,245.92,411.13,247.66Z"/><path class="cls-13" d="M422.17,243a11.21,11.21,0,0,1,10.61,9.05c-11.57,4.37-11.74,4.24-10.66-8.07C422.15,243.67,422.16,243.34,422.17,243Z"/><path class="cls-6" d="M397.05,266c.48-1.09-1.35-3.91,1.39-4.42a6.45,6.45,0,0,1,6.22,2.28c1.54,2,1.08,4.15-.36,5.91s-3.26,5.28-5.22,4.41C396.67,273.16,396.5,269.55,397.05,266Z"/><path class="cls-13" d="M435.76,261.59c2.75,5.5-1.32,9.28-3.41,13.56a3.05,3.05,0,0,1-.38-.32c-2.26-2.68-6.43-4.55-5.07-8.95C428.2,261.68,432.61,262.66,435.76,261.59Z"/><path class="cls-13" d="M409.32,281.47c4.8-10.58,5.78-10.7,13-1.53,0,1.59.33,3.49-2.36,3C416.41,282.34,412.62,283.68,409.32,281.47Z"/><path class="cls-8" d="M420.78,262.11c0,2.05-.67,3.52-3.06,3.72-2.84.25-4.08-1.82-4.44-3.79s1.56-3.12,3.56-3.25C419.13,258.64,420.75,259.48,420.78,262.11Z"/><path class="cls-8" d="M419.93,282.92c2.69.51,2.33-1.39,2.36-3,1.8,1.2,2.94,3.86,5.83,2.64.19.25.39.49.6.73-4.86,3.18-10,3.47-15.42,1.65C415.67,284.82,418,284.55,419.93,282.92Z"/><path class="cls-6" d="M419.93,282.92c-1.92,1.63-4.26,1.9-6.63,2-1.5-1-5.56,1-4-3.49C412.62,283.68,416.41,282.34,419.93,282.92Z"/><path class="cls-14" d="M40.77,210.26l.84.94c-.3,2.08-1.78,4.13-.13,6.24l0,0C37.56,215.41,39.78,212.78,40.77,210.26Z"/><path class="cls-14" d="M41.48,217.44l4,1.48c-1.64.36-3.57,1.51-4-1.46Z"/><path class="cls-7" d="M69,191.12c-.18,3.42,1.2,8-5.16,6.73a18.52,18.52,0,0,1,.77-7C66,192.71,67.55,190.67,69,191.12Z"/><path class="cls-14" d="M498.77,146.64l-2.3.91c-1.49-3.72-4.89-2.11-7.51-2.71.8-3.86,4.18-.38,5.74-2.48-.39-2-3.54-.44-4.47-2.79,4.39-1.41,8.48.19,12.6.62,2.32.85,5.22.8,6.06,3.92A18.88,18.88,0,0,0,498.77,146.64Z"/><path class="cls-8" d="M502.81,154.41c-2.88,5.54-3.47,11.2-.43,17.32-6.23-3.76-5.94-12.75.07-17.69Z"/><path class="cls-5" d="M507.83,159.38c2.55,2.37,3.34,5.48.9,7-4,2.45-4.65-.51-3.19-3.53A16.39,16.39,0,0,1,507.83,159.38Z"/><path class="cls-8" d="M502.45,154l.7-.32-.34.69Z"/></g></g></svg>